# Blender v2.90.0 OBJ File: 'Chair1.blend'
# www.blender.org
mtllib Chair1.mtl
o Chair1_Cube.002
v -1.626369 -0.804450 1.887859
v -1.626369 -0.084549 1.887859
v -1.626369 -0.804450 -1.127129
v -1.626369 0.047095 -1.127129
v 1.626369 -0.804450 1.887859
v 1.626369 -0.084549 1.887859
v 1.626369 -0.804450 -1.127129
v 1.626369 0.047095 -1.127129
v -1.626369 -0.804450 -0.725160
v -1.626369 0.047095 -0.725160
v 1.626369 -0.804450 -0.725160
v 1.626369 0.047095 -0.725160
v -1.357246 3.212002 -0.725160
v -1.357246 3.212002 -1.127129
v 1.357246 3.212002 -1.127129
v 1.357246 3.212002 -0.725160
v 2.041487 -1.328011 2.249525
v 2.041487 -0.682136 2.249525
v 2.041487 -1.328011 -1.358951
v 2.041487 -0.682135 -1.358951
v -2.041487 -1.328011 2.249525
v -2.041487 -0.682136 2.249525
v -2.041487 -1.328011 -1.358951
v -2.041487 -0.682135 -1.358951
vt 0.625000 0.216669
vt 0.375000 0.250000
vt 0.375000 0.216669
vt 0.625000 0.250000
vt 0.375000 0.500000
vt 0.375000 0.533331
vt 0.625000 0.750000
vt 0.375000 0.750000
vt 0.375000 1.000000
vt 0.125000 0.750000
vt 0.125000 0.533331
vt 0.875000 0.554017
vt 0.625000 0.533331
vt 0.625000 0.500000
vt 0.625000 0.500000
vt 0.125000 0.500000
vt 0.625000 0.000000
vt 0.375000 0.000000
vt 0.875000 0.500000
vt 0.625000 0.533331
vt 0.875000 0.533331
vt 0.625000 0.250000
vt 0.625000 1.000000
vt 0.875000 0.750000
vt 0.625000 0.216669
vt 0.375000 0.250000
vt 0.625000 0.000000
vt 0.375000 0.000000
vt 0.375000 0.500000
vt 0.625000 0.250000
vt 0.375000 0.750000
vt 0.625000 0.500000
vt 0.375000 1.000000
vt 0.625000 0.750000
vt 0.125000 0.750000
vt 0.125000 0.500000
vt 0.875000 0.500000
vt 0.625000 1.000000
vt 0.875000 0.750000
vn -1.0000 0.0000 0.0000
vn 0.0000 0.0000 -1.0000
vn 1.0000 0.0000 0.0000
vn 0.0000 0.0000 1.0000
vn 0.0000 -1.0000 0.0000
vn -0.0000 0.9987 0.0503
vn 0.0000 1.0000 0.0000
vn 0.9964 0.0847 0.0000
vn -0.9964 0.0847 0.0000
usemtl DarkBlue_Chair1
s off
f 10/1/1 3/2/1 9/3/1
f 4/4/2 7/5/2 3/2/2
f 11/6/3 6/7/3 5/8/3
f 6/7/4 1/9/4 5/8/4
f 11/6/5 1/10/5 9/11/5
f 10/12/6 6/7/6 12/13/6
f 4/4/2 15/14/2 8/15/2
f 7/5/5 9/11/5 3/16/5
f 8/15/3 11/6/3 7/5/3
f 2/17/1 9/3/1 1/18/1
f 14/19/7 16/20/7 15/14/7
f 12/13/4 13/21/4 10/12/4
f 8/15/8 16/20/8 12/13/8
f 10/1/9 14/22/9 4/4/9
f 10/1/1 4/4/1 3/2/1
f 4/4/2 8/15/2 7/5/2
f 11/6/3 12/13/3 6/7/3
f 6/7/4 2/23/4 1/9/4
f 11/6/5 5/8/5 1/10/5
f 10/12/6 2/24/6 6/7/6
f 4/4/2 14/22/2 15/14/2
f 7/5/5 11/6/5 9/11/5
f 8/15/3 12/13/3 11/6/3
f 2/17/1 10/1/1 9/3/1
f 14/19/7 13/21/7 16/20/7
f 12/13/4 16/20/4 13/21/4
f 8/15/8 15/14/8 16/20/8
f 10/1/9 13/25/9 14/22/9
usemtl DarkRed_Chair1
f 19/26/3 18/27/3 17/28/3
f 23/29/2 20/30/2 19/26/2
f 21/31/1 24/32/1 23/29/1
f 17/33/4 22/34/4 21/31/4
f 17/35/5 23/29/5 19/36/5
f 22/34/7 20/37/7 24/32/7
f 19/26/3 20/30/3 18/27/3
f 23/29/2 24/32/2 20/30/2
f 21/31/1 22/34/1 24/32/1
f 17/33/4 18/38/4 22/34/4
f 17/35/5 21/31/5 23/29/5
f 22/34/7 18/39/7 20/37/7
