# Blender v2.90.0 OBJ File: 'Chair5.blend'
# www.blender.org
mtllib Chair5.mtl
o Chair5_Cube.004
v -1.968429 -2.737661 3.370216
v -1.766568 -2.737661 -0.270699
v -1.766568 -1.638823 -0.270699
v 1.968429 -2.737661 3.370216
v 1.766568 -2.737661 -0.270699
v 1.766568 -1.638823 -0.270699
v -1.968429 -2.069960 3.370216
v -1.968429 -1.638823 2.585502
v -1.968429 -1.854391 3.265084
v -1.968429 -1.696584 2.977859
v 1.968429 -1.638823 2.585502
v 1.968429 -2.069960 3.370216
v 1.968429 -1.696584 2.977859
v 1.968429 -1.854391 3.265084
v -1.763708 -1.566833 0.393409
v -1.763708 -1.703667 -0.799409
v 1.763708 -1.566833 0.393409
v 1.763708 -1.703667 -0.799409
v -1.763708 -0.257006 0.263697
v -1.763708 -0.459864 -1.504668
v 1.763708 -0.459864 -1.504668
v 1.763708 -0.257006 0.263697
v -1.763708 -1.100923 -1.319043
v 1.763708 -1.100923 -1.319043
v 1.763708 -0.892762 0.495558
v -1.763708 -0.892762 0.495558
v -0.440675 2.810797 -1.037962
v -1.763708 2.331226 -0.834482
v -1.102192 2.746547 -1.010701
v -1.586455 2.571011 -0.936222
v -1.763708 2.184071 -2.117272
v -0.440675 2.673963 -2.230781
v -1.586455 2.429017 -2.174026
v -1.102192 2.608330 -2.215574
v 1.763708 2.331226 -0.834482
v 0.440675 2.810797 -1.037962
v 1.586455 2.571011 -0.936222
v 1.102192 2.746547 -1.010701
v 0.440675 2.673963 -2.230781
v 1.763708 2.184071 -2.117272
v 1.102192 2.608330 -2.215574
v 1.586455 2.429017 -2.174027
vt 0.875000 0.500000
vt 0.625000 0.696118
vt 0.625000 0.500000
vt 0.625000 0.250000
vt 0.375000 0.500000
vt 0.375000 0.250000
vt 0.625000 0.053882
vt 0.125000 0.750000
vt 0.125000 0.500000
vt 0.526911 0.750000
vt 0.375000 0.750000
vt 0.611859 0.723059
vt 0.875000 0.696118
vt 0.625000 0.723059
vt 0.625000 1.000000
vt 0.575955 0.750000
vt 0.625000 0.750000
vt 0.575955 1.000000
vt 0.375000 1.000000
vt 0.781232 0.500000
vt 0.718768 0.750000
vt 0.718768 0.500000
vt 0.447917 0.500000
vt 0.597318 0.750000
vt 0.447917 0.750000
vt 0.597318 0.000000
vt 0.447917 0.250000
vt 0.447917 0.000000
vt 0.375000 0.500000
vt 0.125000 0.750000
vt 0.125000 0.500000
vt 0.597318 0.500000
vt 0.625000 0.406232
vt 0.411459 1.000000
vt 0.411459 0.750000
vt 0.411459 0.500000
vt 0.411459 0.250000
vt 0.411459 0.000000
vt 0.375000 0.250000
vt 0.375000 0.000000
vt 0.375000 0.750000
vt 0.375000 1.000000
vt 0.781232 0.750000
vt 0.828116 0.501588
vt 0.828116 0.754115
vt 0.625000 0.000000
vt 0.611159 0.250000
vt 0.611159 0.000000
vt 0.597318 0.250000
vt 0.655020 0.485431
vt 0.655020 0.768371
vt 0.611159 0.495813
vt 0.611159 0.754188
vt 0.597318 1.000000
vt 0.447917 1.000000
vt 0.625000 0.906232
vt 0.375000 0.000000
vt 0.526911 0.000000
vt 0.611858 0.026941
vt 0.575955 0.007219
vt 0.575955 0.742781
vt 0.875000 0.723059
vt 0.526911 1.000000
vt 0.625000 0.343768
vt 0.621291 0.296884
vt 0.611159 0.262563
vt 0.625000 0.248412
vt 0.625000 0.843768
vt 0.621291 0.953116
vt 0.611159 0.987437
vn 0.0000 1.0000 -0.0000
vn 0.0000 0.0000 -1.0000
vn -0.9975 0.0000 -0.0705
vn 0.0000 -1.0000 0.0000
vn 1.0000 0.0000 0.0000
vn 0.0000 0.9893 0.1456
vn 0.0000 0.8764 0.4815
vn 0.0000 0.4383 0.8988
vn 0.0000 0.0000 1.0000
vn 0.0000 0.9935 -0.1140
vn -1.0000 0.0000 -0.0000
vn 0.0000 -0.9935 0.1140
vn -0.0000 -0.2257 -0.9742
vn 0.0000 0.3426 0.9395
vn 0.0000 -0.2781 -0.9605
vn 0.0000 -0.6530 -0.7574
vn 0.0000 -0.1498 0.9887
vn -0.1007 0.9884 -0.1134
vn -0.3533 0.9294 -0.1066
vn -0.8156 0.5749 -0.0659
vn 0.1007 0.9884 -0.1134
vn 0.3533 0.9294 -0.1066
vn 0.8156 0.5749 -0.0659
vn 0.0000 0.3906 0.9206
vn -0.9977 -0.0395 -0.0553
vn 0.9977 -0.0395 -0.0553
vn 0.9975 0.0000 -0.0705
usemtl DarkOrange_Chair5
s off
f 3/1/1 11/2/1 6/3/1
f 3/4/2 5/5/2 2/6/2
f 8/7/3 3/4/3 2/6/3
f 5/5/4 1/8/4 2/9/4
f 12/10/5 4/11/5 13/12/5
f 8/13/6 13/14/6 11/2/6
f 10/15/7 14/16/7 13/17/7
f 9/18/8 12/10/8 14/16/8
f 12/10/9 1/19/9 4/11/9
f 32/20/10 36/21/10 39/22/10
f 21/23/5 35/24/5 22/25/5
f 28/26/11 20/27/11 19/28/11
f 18/29/12 15/30/12 16/31/12
f 40/32/13 21/23/13 39/33/13
f 22/25/14 26/34/14 25/35/14
f 24/36/5 22/25/5 25/35/5
f 20/27/15 24/36/15 23/37/15
f 19/28/11 23/37/11 26/38/11
f 26/38/11 16/39/11 15/40/11
f 23/37/16 18/29/16 16/39/16
f 18/29/5 25/35/5 17/41/5
f 25/35/17 15/42/17 17/41/17
f 27/43/18 34/44/18 29/45/18
f 29/46/19 33/47/19 30/48/19
f 30/48/20 31/49/20 28/26/20
f 36/21/21 41/50/21 39/22/21
f 38/51/22 42/52/22 41/50/22
f 37/53/23 40/32/23 42/52/23
f 28/54/24 19/55/24 27/56/24
f 3/1/1 8/13/1 11/2/1
f 3/4/2 6/3/2 5/5/2
f 2/6/25 1/57/25 8/7/25
f 1/57/11 7/58/11 10/59/11
f 8/7/11 1/57/11 10/59/11
f 7/58/11 9/60/11 10/59/11
f 5/5/4 4/11/4 1/8/4
f 4/11/26 5/5/26 11/2/26
f 5/5/27 6/3/27 11/2/27
f 11/2/5 13/12/5 4/11/5
f 13/12/5 14/61/5 12/10/5
f 8/13/6 10/62/6 13/14/6
f 10/15/7 9/18/7 14/16/7
f 9/18/8 7/63/8 12/10/8
f 12/10/9 7/63/9 1/19/9
f 32/20/10 27/43/10 36/21/10
f 21/23/5 40/32/5 35/24/5
f 28/26/11 31/49/11 20/27/11
f 18/29/12 17/41/12 15/30/12
f 21/23/13 20/27/13 32/64/13
f 20/27/13 31/49/13 32/64/13
f 32/64/13 31/49/13 34/65/13
f 31/49/13 33/66/13 34/65/13
f 32/64/13 39/33/13 21/23/13
f 39/33/13 41/50/13 40/32/13
f 41/50/13 42/52/13 40/32/13
f 22/25/14 19/55/14 26/34/14
f 24/36/5 21/23/5 22/25/5
f 20/27/15 21/23/15 24/36/15
f 19/28/11 20/27/11 23/37/11
f 26/38/11 23/37/11 16/39/11
f 23/37/16 24/36/16 18/29/16
f 18/29/5 24/36/5 25/35/5
f 25/35/17 26/34/17 15/42/17
f 27/43/18 32/20/18 34/44/18
f 29/46/19 34/67/19 33/47/19
f 30/48/20 33/47/20 31/49/20
f 36/21/21 38/51/21 41/50/21
f 38/51/22 37/53/22 42/52/22
f 37/53/23 35/24/23 40/32/23
f 19/55/24 22/25/24 36/68/24
f 22/25/24 35/24/24 36/68/24
f 35/24/24 37/53/24 38/51/24
f 38/51/24 36/68/24 35/24/24
f 36/68/24 27/56/24 19/55/24
f 27/56/24 29/69/24 28/54/24
f 29/69/24 30/70/24 28/54/24
