# Blender v2.90.0 OBJ File: 'Hood2.blend'
# www.blender.org
mtllib Hood2.mtl
o Hood2_Cylinder.010
v -1.639627 -1.963635 1.342461
v -1.639627 -0.324759 1.342461
v -2.733877 -1.842588 0.285838
v -2.733877 -0.203712 0.285838
v -3.482250 -1.684598 -1.013756
v -3.482250 -0.045722 -1.013756
v -1.433104 2.800992 -1.774232
v -0.819815 -1.963635 1.608834
v -1.483175 -1.963635 1.078506
v -1.480104 -0.324759 1.080350
v -2.493567 -1.842588 0.095047
v -2.490439 -0.203712 0.099055
v -3.216347 -1.684598 -1.166874
v -3.216347 -0.045722 -1.166874
v -1.395291 2.566712 -1.968740
v -0.001485 2.566712 -1.793092
v -0.725000 -1.963635 1.317010
v -1.480104 -0.324759 1.080350
v 0.001478 2.566712 -1.793092
v 1.639620 -1.963635 1.342461
v 1.639620 -0.324759 1.342461
v 2.733871 -1.842588 0.285838
v 2.733871 -0.203712 0.285838
v 3.482244 -1.684598 -1.013756
v 3.482244 -0.045722 -1.013756
v 1.433098 2.800992 -1.774232
v 0.819808 -1.963635 1.608834
v -0.000003 -1.963635 1.505513
v -0.000003 -0.427534 1.520365
v 1.483169 -1.963635 1.078506
v 1.480097 -0.324759 1.080350
v 2.493561 -1.842588 0.095047
v 2.490433 -0.203712 0.099055
v 3.216340 -1.684598 -1.166874
v 3.216340 -0.045722 -1.166874
v 1.395284 2.566712 -1.968740
v 0.724993 -1.963635 1.317010
v 1.480097 -0.324759 1.080350
v -0.000003 -1.963635 1.797337
v -0.000003 -0.324759 1.797337
v -0.000003 2.800992 -1.598584
v -1.085056 0.919572 0.370179
v -0.000003 0.919572 0.553122
v -1.025153 0.747124 0.137325
v 0.000179 0.742142 0.320488
v 1.085049 0.919572 0.370179
v 1.025146 0.747124 0.137325
v -0.000003 2.098677 -0.690352
v -1.316403 2.098677 -0.868446
v -0.000744 1.871641 -0.891879
v -1.274628 1.869717 -1.068218
v 1.316396 2.098677 -0.868446
v 1.274621 1.869717 -1.068218
v 0.000737 1.871641 -0.891879
vt 0.950000 0.500000
vt 0.900000 1.000000
vt 0.900000 0.500000
vt 0.826864 0.500000
vt 0.826864 1.000000
vt 0.763246 0.500000
vt 0.951954 1.000000
vt 1.000000 1.000000
vt 0.952413 1.000000
vt 1.000000 1.000000
vt 1.000000 0.500000
vt 0.950000 0.500000
vt 0.900000 1.000000
vt 0.950000 1.000000
vt 0.826864 0.500000
vt 0.900000 0.500000
vt 0.763246 0.500000
vt 0.826864 1.000000
vt 0.951954 1.000000
vt 1.000000 1.000000
vt 1.000000 1.000000
vt 1.000000 1.000000
vt 1.000000 0.500000
vt 0.951043 1.000000
vt 0.763246 1.000000
vt 0.952413 1.000000
vt 0.763246 1.000000
vt 1.000000 1.000000
vt 0.951043 1.000000
vt 0.951954 1.000000
vt 0.950000 0.500000
vt 0.900000 0.500000
vt 0.950000 1.000000
vt 0.826864 0.500000
vt 0.900000 1.000000
vt 0.763246 0.500000
vt 0.826864 1.000000
vt 0.950000 0.500000
vt 0.900000 1.000000
vt 0.900000 0.500000
vt 0.826864 0.500000
vt 0.826864 1.000000
vt 0.763246 0.500000
vt 0.951954 1.000000
vt 1.000000 1.000000
vt 0.952413 1.000000
vt 0.763246 1.000000
vt 0.952413 1.000000
vt 0.950000 1.000000
vt 1.000000 1.000000
vt 0.951043 1.000000
vt 0.951043 1.000000
vt 0.950000 1.000000
vt 0.763246 1.000000
vt 1.000000 1.000000
vt 1.000000 1.000000
vn -0.3090 0.0000 0.9511
vn -0.6946 0.0000 0.7194
vn -0.8666 0.0000 0.4990
vn -0.0756 0.7833 0.6171
vn -0.2241 0.0000 0.9746
vn 0.0000 0.0000 1.0000
vn 0.6975 -0.0005 -0.7166
vn 0.8677 -0.0004 -0.4971
vn 0.0854 -0.7889 -0.6085
vn 0.2516 0.0094 -0.9678
vn 0.0000 -1.0000 0.0000
vn -0.0701 -0.9967 -0.0416
vn 0.4193 -0.6195 -0.6636
vn -0.0659 -0.9944 -0.0830
vn 0.6066 -0.5873 -0.5358
vn -0.4990 0.0000 -0.8666
vn 0.0941 0.7122 0.6956
vn 0.0956 0.6449 -0.7582
vn -0.4950 0.1267 -0.8596
vn 0.3090 0.0000 0.9511
vn 0.6946 0.0000 0.7194
vn 0.8666 0.0000 0.4990
vn 0.0825 0.7884 0.6096
vn 0.2241 0.0000 0.9746
vn -0.3001 0.0005 -0.9539
vn -0.6975 -0.0005 -0.7166
vn -0.8677 -0.0004 -0.4971
vn -0.0777 -0.7833 -0.6167
vn -0.2516 0.0094 -0.9678
vn -1.0000 0.0000 0.0000
vn 0.0701 -0.9967 -0.0416
vn 0.0659 -0.9944 -0.0830
vn 0.4990 0.0000 -0.8666
vn -0.0939 0.6356 -0.7663
vn 0.2015 0.6573 0.7262
vn -0.1250 -0.6847 -0.7180
vn 0.1559 -0.7073 -0.6895
vn -0.2015 0.6573 0.7262
vn 0.7482 0.3482 -0.5648
vn -0.6402 -0.6260 -0.4452
vn -0.4613 -0.6883 -0.5598
vn -0.1152 0.7208 0.6835
vn -0.0964 -0.7184 -0.6889
vn 0.0963 -0.7184 -0.6889
vn 0.4460 0.6052 0.6594
vn 0.6136 0.5837 0.5317
vn -0.4809 0.6628 0.5740
vn -0.6445 0.6207 0.4466
vn -0.0825 0.7884 0.6096
vn -0.2673 0.0229 0.9634
vn 0.3001 0.0005 -0.9539
vn 0.6967 0.0004 -0.7173
vn 0.8675 0.0000 -0.4974
vn 0.0777 -0.7833 -0.6167
vn 0.2845 -0.0074 -0.9587
vn -0.0536 -0.9963 -0.0675
vn 0.4613 -0.6883 -0.5598
vn -0.0539 -0.9942 -0.0936
vn 0.6402 -0.6260 -0.4452
vn 0.1152 0.7208 0.6835
vn 0.0939 0.6356 -0.7663
vn -0.7482 0.3482 -0.5648
vn 0.0756 0.7833 0.6171
vn 0.2673 0.0229 0.9634
vn -0.6967 0.0004 -0.7173
vn -0.8675 0.0000 -0.4974
vn -0.0854 -0.7889 -0.6085
vn -0.2845 -0.0074 -0.9587
vn 0.0536 -0.9963 -0.0675
vn 0.0539 -0.9942 -0.0936
vn -0.0956 0.6449 -0.7582
vn 0.1184 0.7021 0.7022
vn -0.1559 -0.7073 -0.6895
vn 0.1249 -0.6847 -0.7180
vn -0.1184 0.7021 0.7022
vn 0.4950 0.1267 -0.8596
vn -0.6066 -0.5873 -0.5358
vn -0.4193 -0.6195 -0.6636
vn -0.0941 0.7122 0.6956
vn -0.1174 -0.7266 -0.6770
vn 0.1174 -0.7266 -0.6769
vn 0.4809 0.6628 0.5740
vn 0.6445 0.6207 0.4466
vn -0.4460 0.6052 0.6594
vn -0.6136 0.5837 0.5317
usemtl Purple_Hood2
s off
f 8/1/1 2/2/1 1/3/1
f 2/2/2 3/4/2 1/3/2
f 4/5/3 5/6/3 3/4/3
f 49/7/4 41/8/4 7/9/4
f 40/10/5 8/1/5 39/11/5
f 17/12/6 10/13/6 18/14/6
f 11/15/7 10/13/7 9/16/7
f 13/17/8 12/18/8 11/15/8
f 51/19/9 16/20/9 50/21/9
f 17/12/10 29/22/10 28/23/10
f 8/1/11 9/16/11 17/12/11
f 3/4/12 9/16/12 1/3/12
f 44/24/13 12/18/13 51/19/13
f 5/6/14 11/15/14 3/4/14
f 51/19/15 14/25/15 15/26/15
f 6/27/16 13/17/16 5/6/16
f 48/28/17 46/29/17 52/30/17
f 7/9/18 16/20/18 15/26/18
f 8/1/11 28/23/11 39/11/11
f 7/9/19 14/25/19 6/27/19
f 27/31/20 20/32/20 21/33/20
f 22/34/21 21/35/21 20/32/21
f 24/36/22 23/37/22 22/34/22
f 52/30/23 41/8/23 48/28/23
f 27/31/24 40/10/24 39/11/24
f 37/38/25 31/39/25 30/40/25
f 31/39/26 32/41/26 30/40/26
f 33/42/27 34/43/27 32/41/27
f 53/44/28 19/45/28 36/46/28
f 29/22/29 37/38/29 28/23/29
f 27/31/11 30/40/11 20/32/11
f 29/22/30 39/11/30 40/10/30
f 30/40/31 22/34/31 20/32/31
f 32/41/32 24/36/32 22/34/32
f 34/43/33 25/47/33 24/36/33
f 26/48/34 19/45/34 41/8/34
f 28/23/11 27/31/11 39/11/11
f 46/29/35 40/10/35 21/33/35
f 38/49/36 45/50/36 47/51/36
f 18/14/37 45/50/37 29/22/37
f 40/10/38 42/52/38 2/53/38
f 26/48/39 35/54/39 36/46/39
f 53/44/40 35/54/40 33/42/40
f 47/51/41 33/42/41 31/39/41
f 48/28/42 42/52/42 43/55/42
f 47/51/43 54/56/43 53/44/43
f 54/56/44 44/24/44 51/19/44
f 46/29/45 23/37/45 52/30/45
f 52/30/46 25/47/46 26/48/46
f 42/52/47 4/5/47 2/2/47
f 49/7/48 6/27/48 4/5/48
f 2/2/2 4/5/2 3/4/2
f 4/5/3 6/27/3 5/6/3
f 49/7/49 48/28/49 41/8/49
f 40/10/50 2/53/50 8/1/50
f 17/12/51 9/16/51 10/13/51
f 11/15/52 12/18/52 10/13/52
f 13/17/53 14/25/53 12/18/53
f 51/19/54 15/26/54 16/20/54
f 17/12/55 18/14/55 29/22/55
f 8/1/11 1/3/11 9/16/11
f 3/4/56 11/15/56 9/16/56
f 44/24/57 10/13/57 12/18/57
f 5/6/58 13/17/58 11/15/58
f 51/19/59 12/18/59 14/25/59
f 6/27/16 14/25/16 13/17/16
f 48/28/60 43/55/60 46/29/60
f 7/9/61 41/8/61 16/20/61
f 8/1/11 17/12/11 28/23/11
f 7/9/62 15/26/62 14/25/62
f 22/34/21 23/37/21 21/35/21
f 24/36/22 25/47/22 23/37/22
f 52/30/63 26/48/63 41/8/63
f 27/31/64 21/33/64 40/10/64
f 37/38/6 38/49/6 31/39/6
f 31/39/65 33/42/65 32/41/65
f 33/42/66 35/54/66 34/43/66
f 53/44/67 54/56/67 19/45/67
f 29/22/68 38/49/68 37/38/68
f 27/31/11 37/38/11 30/40/11
f 29/22/30 28/23/30 39/11/30
f 30/40/69 32/41/69 22/34/69
f 32/41/70 34/43/70 24/36/70
f 34/43/33 35/54/33 25/47/33
f 26/48/71 36/46/71 19/45/71
f 28/23/11 37/38/11 27/31/11
f 46/29/72 43/55/72 40/10/72
f 38/49/73 29/22/73 45/50/73
f 18/14/74 44/24/74 45/50/74
f 40/10/75 43/55/75 42/52/75
f 26/48/76 25/47/76 35/54/76
f 53/44/77 36/46/77 35/54/77
f 47/51/78 53/44/78 33/42/78
f 48/28/79 49/7/79 42/52/79
f 47/51/80 45/50/80 54/56/80
f 54/56/81 45/50/81 44/24/81
f 46/29/82 21/35/82 23/37/82
f 52/30/83 23/37/83 25/47/83
f 42/52/84 49/7/84 4/5/84
f 49/7/85 7/9/85 6/27/85
