# Blender v2.90.0 OBJ File: 'Hood3.blend'
# www.blender.org
mtllib Hood3.mtl
o Hood2_Cylinder.002
v -1.704133 -1.744838 1.011826
v -1.704133 -0.612877 1.011826
v -3.041188 -1.566363 -0.513765
v -3.041188 0.072513 -0.513765
v -3.482247 -1.473250 -1.279691
v -3.482247 0.165626 -1.279691
v -2.298713 3.012339 -2.040167
v -0.819812 -1.752288 1.342899
v -0.819812 -0.113412 1.342899
v -1.228650 1.607710 -0.328127
v -1.542870 -1.744838 0.752132
v -1.539808 -0.612877 0.754082
v -2.790368 -1.566363 -0.689086
v -2.788524 0.072513 -0.686724
v -3.216344 -1.473250 -1.432809
v -3.216344 0.165626 -1.432809
v -2.238060 2.778060 -2.234675
v -0.002376 2.778060 -2.059027
v -0.724997 -1.752288 1.051075
v -0.733940 -0.197879 1.060693
v -1.192422 1.384068 -0.533161
v -2.035178 2.544129 -1.469487
v -1.597036 2.075919 -0.872668
v -0.000792 1.851298 -0.897625
v -1.982666 2.313396 -1.667504
v -1.552666 1.848732 -1.074193
v -1.087869 1.034003 0.228882
v -0.950014 0.460295 0.785890
v -1.035093 0.856752 -0.001877
v -0.880690 0.329437 0.529408
v -2.133430 -1.695258 0.581257
v -2.617785 -1.632656 0.044340
v -2.617785 -0.117990 0.044340
v -2.133430 -0.424229 0.581257
v -1.940150 -1.695258 0.349924
v -2.391197 -1.632656 -0.156092
v -2.388556 -0.117990 -0.153147
v -1.937155 -0.424229 0.352569
v -1.093082 -1.752288 1.254108
v -1.366353 -1.752288 1.165317
v -1.366353 -0.550062 1.165317
v -1.093082 -0.380757 1.254108
v -0.977722 -1.752288 0.971574
v -1.230447 -1.752288 0.892072
v -1.231380 -0.578218 0.896508
v -0.982660 -0.437068 0.978600
v 1.704133 -1.744838 1.011826
v 1.704133 -0.612877 1.011826
v 3.041188 -1.566363 -0.513765
v 3.041188 0.072513 -0.513765
v 3.482247 -1.473250 -1.279691
v 3.482247 0.165626 -1.279691
v 2.298713 3.012339 -2.040167
v 0.819812 -1.752288 1.342899
v 0.819812 -0.113412 1.342899
v 1.228650 1.607710 -0.328127
v 1.542870 -1.744838 0.752132
v 1.539808 -0.612877 0.754082
v 2.790368 -1.566363 -0.689086
v 2.788524 0.072513 -0.686724
v 3.216344 -1.473250 -1.432809
v 3.216344 0.165626 -1.432809
v 2.238060 2.778060 -2.234675
v 0.002376 2.778060 -2.059027
v 0.724997 -1.752288 1.051075
v 0.733940 -0.197879 1.060693
v 1.192422 1.384068 -0.533161
v -0.000000 -1.752288 1.239578
v -0.000000 -0.216186 1.254430
v -0.000000 1.387917 -0.356133
v -0.000000 -1.752288 1.531402
v -0.000000 -0.113412 1.531402
v -0.000000 3.012339 -1.864519
v -0.000000 1.607710 -0.147587
v 2.035178 2.544129 -1.469487
v 1.597036 2.075919 -0.872668
v 0.000792 1.851298 -0.897625
v -0.000000 2.314679 -1.491396
v 1.982666 2.313396 -1.667504
v 1.552666 1.848732 -1.074193
v 1.087869 1.034003 0.228882
v 0.950014 0.460295 0.785890
v -0.000000 0.460295 0.971739
v -0.000000 1.034003 0.412076
v 1.035093 0.856752 -0.001877
v 0.880690 0.329437 0.529408
v -0.000000 0.318515 0.717576
v -0.000000 0.853216 0.180722
v -0.000000 2.600242 -1.360797
v -0.000000 2.156400 -0.792133
v 2.133430 -1.695258 0.581257
v 2.617785 -1.632656 0.044340
v 2.617785 -0.117990 0.044340
v 2.133430 -0.424229 0.581257
v 1.940150 -1.695258 0.349924
v 2.391197 -1.632656 -0.156092
v 2.388556 -0.117990 -0.153147
v 1.937155 -0.424229 0.352569
v 1.093082 -1.752288 1.254108
v 1.366353 -1.752288 1.165317
v 1.366353 -0.550062 1.165317
v 1.093082 -0.380757 1.254108
v 0.977722 -1.752288 0.971574
v 1.230447 -1.752288 0.892072
v 1.231380 -0.578218 0.896508
v 0.982660 -0.437068 0.978600
vt 0.916667 0.500000
vt 0.895632 1.000000
vt 0.895632 0.500000
vt 0.832557 1.000000
vt 0.800740 0.500000
vt 0.832557 0.500000
vt 0.800740 1.000000
vt 0.763246 0.500000
vt 1.000000 1.000000
vt 0.950000 0.500000
vt 1.000000 0.500000
vt 0.950996 1.000000
vt 1.000000 1.000000
vt 0.951495 1.000000
vt 0.916667 0.500000
vt 0.895632 1.000000
vt 0.916667 1.000000
vt 0.800740 0.500000
vt 0.832557 1.000000
vt 0.832557 0.500000
vt 0.763246 0.500000
vt 0.800740 1.000000
vt 0.952107 1.000000
vt 1.000000 1.000000
vt 1.000000 1.000000
vt 0.950000 0.500000
vt 1.000000 1.000000
vt 1.000000 0.500000
vt 0.950996 1.000000
vt 1.000000 1.000000
vt 1.000000 1.000000
vt 0.895632 0.500000
vt 0.866561 1.000000
vt 0.866561 1.000000
vt 0.763246 1.000000
vt 0.763246 1.000000
vt 0.951495 1.000000
vt 1.000000 1.000000
vt 1.000000 1.000000
vt 0.952413 1.000000
vt 0.952413 1.000000
vt 0.933333 1.000000
vt 0.950000 1.000000
vt 0.933333 1.000000
vt 0.952107 1.000000
vt 0.951801 1.000000
vt 0.951801 1.000000
vt 0.950498 1.000000
vt 0.950000 1.000000
vt 0.950498 1.000000
vt 1.000000 1.000000
vt 1.000000 1.000000
vt 1.000000 1.000000
vt 0.000000 0.000000
vt 0.000000 0.000000
vt 0.000000 0.000000
vt 0.866561 0.500000
vt 0.866561 0.500000
vt 0.916667 1.000000
vt 0.933333 0.500000
vt 0.933333 0.500000
vt 0.916667 0.500000
vt 0.895632 1.000000
vt 0.916667 1.000000
vt 0.800740 0.500000
vt 0.832557 1.000000
vt 0.832557 0.500000
vt 0.763246 0.500000
vt 0.800740 1.000000
vt 0.950000 0.500000
vt 0.950996 1.000000
vt 0.916667 0.500000
vt 0.895632 1.000000
vt 0.895632 0.500000
vt 0.832557 1.000000
vt 0.800740 0.500000
vt 0.832557 0.500000
vt 0.800740 1.000000
vt 0.763246 0.500000
vt 0.952107 1.000000
vt 1.000000 1.000000
vt 0.952413 1.000000
vt 0.950000 0.500000
vt 0.950996 1.000000
vt 0.951495 1.000000
vt 0.895632 0.500000
vt 0.866561 1.000000
vt 0.763246 1.000000
vt 1.000000 1.000000
vt 0.951801 1.000000
vt 0.951495 1.000000
vt 0.952413 1.000000
vt 0.933333 1.000000
vt 0.950000 1.000000
vt 0.950000 1.000000
vt 0.952107 1.000000
vt 0.951801 1.000000
vt 0.950498 1.000000
vt 0.950498 1.000000
vt 0.866561 1.000000
vt 0.866561 0.500000
vt 0.866561 0.500000
vt 0.916667 1.000000
vt 0.933333 0.500000
vt 0.933333 0.500000
vt 0.933333 1.000000
vt 0.763246 1.000000
vn -0.4137 0.0000 0.9104
vn -0.7967 -0.0000 0.6044
vn -0.8666 0.0000 0.4990
vn -0.2241 0.0000 0.9746
vn -0.1067 0.6790 0.7263
vn 0.4189 0.0038 -0.9080
vn 0.8004 -0.0002 -0.5995
vn 0.8677 -0.0003 -0.4970
vn 0.0566 -0.7733 -0.6315
vn 0.2516 0.0094 -0.9678
vn 0.1212 -0.7033 -0.7005
vn -0.0195 -0.9998 -0.0097
vn -0.0626 -0.9955 -0.0708
vn 0.2411 0.9482 0.2069
vn -0.0603 -0.9945 -0.0862
vn 0.0537 0.9942 0.0933
vn -0.4990 0.0000 -0.8666
vn 0.0985 -0.7560 -0.6471
vn -0.9657 -0.2586 -0.0222
vn 0.0581 0.6466 -0.7606
vn 0.0000 -1.0000 0.0000
vn -0.5737 0.7264 -0.3784
vn -0.9309 -0.3356 0.1442
vn -0.8580 -0.4243 0.2895
vn -0.8861 -0.3829 0.2611
vn 0.0711 -0.7864 -0.6136
vn -0.9139 -0.3699 -0.1674
vn -0.9437 -0.3173 -0.0932
vn 0.1663 -0.6987 -0.6959
vn 0.1406 -0.7015 -0.6987
vn -0.1420 0.6727 0.7261
vn -0.1224 0.6761 0.7266
vn -0.0551 0.7728 0.6322
vn -0.0553 0.7654 0.6411
vn -0.0948 0.7580 0.6453
vn 0.1553 0.9615 0.2269
vn 0.2688 0.9113 0.3120
vn -0.0709 -0.9965 -0.0440
vn -0.0668 -0.9962 -0.0559
vn 0.7114 -0.0007 -0.7028
vn 0.7465 -0.0004 -0.6654
vn -0.7082 0.0000 0.7061
vn -0.7425 0.0000 0.6698
vn -0.1421 0.9857 -0.0906
vn -0.4283 0.8509 -0.3042
vn 0.3068 0.0077 -0.9518
vn 0.3102 0.0062 -0.9506
vn -0.3090 0.0000 0.9511
vn 0.4137 0.0000 0.9104
vn 0.7967 -0.0000 0.6044
vn 0.8666 0.0000 0.4990
vn 0.2241 0.0000 0.9746
vn 0.1197 0.6933 0.7107
vn -0.4088 0.0005 -0.9126
vn -0.8004 -0.0002 -0.5995
vn -0.8677 -0.0003 -0.4970
vn -0.0508 -0.7612 -0.6465
vn -0.2516 0.0094 -0.9678
vn -0.1086 -0.6893 -0.7163
vn 0.0172 -0.9998 -0.0107
vn 0.0626 -0.9955 -0.0708
vn -0.2554 0.9530 0.1629
vn 0.0603 -0.9945 -0.0862
vn -0.0594 0.9945 0.0867
vn 0.4990 0.0000 -0.8666
vn -0.0785 -0.7299 -0.6791
vn 0.9657 -0.2586 -0.0222
vn -0.0581 0.6466 -0.7606
vn 0.5759 0.7183 -0.3903
vn 0.9253 -0.3535 0.1373
vn 0.8534 -0.4374 0.2834
vn 0.8815 -0.3978 0.2543
vn -0.0574 -0.7654 -0.6410
vn 0.9139 -0.3699 -0.1674
vn 0.9437 -0.3173 -0.0932
vn -0.1447 -0.6820 -0.7169
vn -0.1241 -0.6860 -0.7169
vn 0.1624 0.6890 0.7063
vn 0.1387 0.6915 0.7089
vn 0.0494 0.7608 0.6471
vn 0.0706 0.7863 0.6137
vn 0.0948 0.7580 0.6453
vn -0.1716 0.9648 0.1992
vn -0.2980 0.9197 0.2557
vn 0.0709 -0.9965 -0.0440
vn 0.0668 -0.9962 -0.0559
vn -0.7114 -0.0007 -0.7028
vn -0.7465 -0.0004 -0.6654
vn 0.7082 0.0000 0.7061
vn 0.7425 0.0000 0.6698
vn 0.1421 0.9857 -0.0906
vn 0.4283 0.8509 -0.3042
vn -0.3001 0.0062 -0.9539
vn -0.3001 0.0038 -0.9539
vn 0.3090 0.0000 0.9511
vn -0.1197 0.6933 0.7107
vn 0.4088 0.0005 -0.9126
vn 0.8001 -0.0000 -0.5998
vn 0.8675 0.0000 -0.4974
vn 0.0508 -0.7612 -0.6465
vn 0.2554 0.0075 -0.9668
vn 0.1086 -0.6893 -0.7163
vn -0.0172 -0.9998 -0.0107
vn -0.0568 -0.9951 -0.0812
vn 0.2554 0.9530 0.1629
vn -0.0539 -0.9942 -0.0936
vn 0.0594 0.9945 0.0867
vn 0.0785 -0.7299 -0.6791
vn -0.9729 -0.2208 0.0689
vn 0.0604 0.6373 -0.7683
vn -0.5759 0.7183 -0.3903
vn -0.9253 -0.3535 0.1373
vn -0.8534 -0.4374 0.2834
vn -0.8815 -0.3978 0.2543
vn 0.0574 -0.7654 -0.6410
vn -0.9368 -0.3407 -0.0794
vn -0.9591 -0.2829 -0.0021
vn 0.1447 -0.6820 -0.7169
vn 0.1241 -0.6860 -0.7169
vn -0.1624 0.6890 0.7063
vn -0.1387 0.6915 0.7089
vn -0.0494 0.7608 0.6471
vn -0.0706 0.7863 0.6137
vn -0.0711 0.7321 0.6775
vn 0.1716 0.9648 0.1992
vn 0.2980 0.9197 0.2557
vn -0.0673 -0.9961 -0.0563
vn -0.0609 -0.9958 -0.0689
vn 0.7107 -0.0002 -0.7035
vn 0.7460 -0.0000 -0.6659
vn -0.0515 0.9902 -0.1296
vn -0.3814 0.8637 -0.3294
vn 0.3001 0.0062 -0.9539
vn 0.3001 0.0038 -0.9539
vn 0.1067 0.6790 0.7263
vn -0.4189 0.0038 -0.9080
vn -0.8001 -0.0000 -0.5998
vn -0.8675 0.0000 -0.4974
vn -0.0566 -0.7733 -0.6315
vn -0.2554 0.0075 -0.9668
vn -0.1212 -0.7033 -0.7005
vn 0.0195 -0.9998 -0.0097
vn 0.0568 -0.9951 -0.0812
vn -0.2411 0.9482 0.2069
vn 0.0539 -0.9942 -0.0936
vn -0.0537 0.9942 0.0933
vn -0.0985 -0.7560 -0.6471
vn 0.9729 -0.2208 0.0689
vn -0.0604 0.6373 -0.7683
vn 0.5737 0.7264 -0.3784
vn 0.9309 -0.3356 0.1442
vn 0.8580 -0.4243 0.2895
vn 0.8861 -0.3829 0.2611
vn -0.0711 -0.7864 -0.6136
vn 0.9368 -0.3407 -0.0794
vn 0.9591 -0.2829 -0.0021
vn -0.1663 -0.6987 -0.6959
vn -0.1406 -0.7015 -0.6987
vn 0.1420 0.6727 0.7261
vn 0.1224 0.6761 0.7266
vn 0.0551 0.7728 0.6322
vn 0.0553 0.7654 0.6411
vn 0.0711 0.7321 0.6775
vn -0.1553 0.9615 0.2269
vn -0.2688 0.9113 0.3120
vn 0.0673 -0.9961 -0.0563
vn 0.0609 -0.9958 -0.0689
vn -0.7107 -0.0002 -0.7035
vn -0.7460 -0.0000 -0.6659
vn 0.0515 0.9902 -0.1296
vn 0.3814 0.8637 -0.3294
vn -0.3068 0.0077 -0.9518
vn -0.3102 0.0062 -0.9506
usemtl MiddleBlue_Hood3
s off
f 40/1/1 2/2/1 1/3/1
f 33/4/2 3/5/2 32/6/2
f 4/7/3 5/8/3 3/5/3
f 72/9/4 8/10/4 71/11/4
f 27/12/5 74/13/5 10/14/5
f 44/15/6 12/16/6 45/17/6
f 13/18/7 37/19/7 36/20/7
f 15/21/8 14/22/8 13/18/8
f 25/23/9 18/24/9 78/25/9
f 19/26/10 69/27/10 68/28/10
f 29/29/11 70/30/11 88/31/11
f 40/1/12 11/32/12 44/15/12
f 3/5/13 36/20/13 32/6/13
f 34/33/14 12/16/14 38/34/14
f 5/8/15 13/18/15 3/5/15
f 6/35/16 14/22/16 16/36/16
f 6/35/17 15/21/17 5/8/17
f 21/37/18 24/38/18 70/30/18
f 10/14/19 29/29/19 27/12/19
f 73/39/20 17/40/20 7/41/20
f 8/10/21 68/28/21 71/11/21
f 42/42/22 20/43/22 46/44/22
f 22/45/23 17/40/23 25/23/23
f 23/46/24 25/23/24 26/47/24
f 10/14/25 26/47/25 21/37/25
f 26/47/26 78/25/26 24/38/26
f 28/48/27 20/43/27 9/49/27
f 27/12/28 30/50/28 28/48/28
f 20/43/29 87/51/29 69/27/29
f 30/50/30 88/31/30 87/51/30
f 9/49/31 83/52/31 28/48/31
f 28/48/32 84/53/32 27/12/32
f 73/39/33 22/45/33 89/54/33
f 23/46/34 89/54/34 22/45/34
f 90/55/35 10/14/35 74/56/35
f 4/7/36 37/19/36 14/22/36
f 33/4/37 38/34/37 37/19/37
f 31/57/38 11/32/38 1/3/38
f 32/6/39 35/58/39 31/57/39
f 35/58/40 12/16/40 11/32/40
f 36/20/41 38/34/41 35/58/41
f 2/2/42 31/57/42 1/3/42
f 34/33/43 32/6/43 31/57/43
f 41/59/44 12/16/44 2/2/44
f 42/42/45 45/17/45 41/59/45
f 8/10/21 43/60/21 19/26/21
f 39/61/21 44/15/21 43/60/21
f 19/26/46 46/44/46 20/43/46
f 43/60/47 45/17/47 46/44/47
f 8/10/48 42/42/48 39/61/48
f 39/61/48 41/59/48 40/1/48
f 100/62/49 48/63/49 101/64/49
f 49/65/50 93/66/50 92/67/50
f 51/68/51 50/69/51 49/65/51
f 54/70/52 72/9/52 71/11/52
f 81/71/53 74/13/53 84/53/53
f 104/72/54 58/73/54 57/74/54
f 97/75/55 59/76/55 96/77/55
f 60/78/56 61/79/56 59/76/56
f 79/80/57 64/81/57 63/82/57
f 69/27/58 65/83/58 68/28/58
f 85/84/59 70/30/59 67/85/59
f 100/62/60 57/74/60 47/86/60
f 96/77/61 49/65/61 92/67/61
f 94/87/62 58/73/62 48/63/62
f 59/76/63 51/68/63 49/65/63
f 52/88/64 60/78/64 50/69/64
f 61/79/65 52/88/65 51/68/65
f 67/85/66 77/89/66 80/90/66
f 85/84/67 56/91/67 81/71/67
f 63/82/68 73/39/68 53/92/68
f 68/28/21 54/70/21 71/11/21
f 102/93/69 66/94/69 55/95/69
f 75/96/70 63/82/70 53/92/70
f 76/97/71 79/80/71 75/96/71
f 56/91/72 80/90/72 76/97/72
f 80/90/73 78/25/73 79/80/73
f 66/94/74 82/98/74 55/95/74
f 86/99/75 81/71/75 82/98/75
f 66/94/76 87/51/76 86/99/76
f 86/99/77 88/31/77 85/84/77
f 55/95/78 83/52/78 72/9/78
f 82/98/79 84/53/79 83/52/79
f 73/39/80 75/96/80 53/92/80
f 76/97/81 89/54/81 90/55/81
f 56/91/82 90/55/82 74/56/82
f 50/69/83 97/75/83 93/66/83
f 93/66/84 98/100/84 94/87/84
f 57/74/85 91/101/85 47/86/85
f 95/102/86 92/67/86 91/101/86
f 58/73/87 95/102/87 57/74/87
f 98/100/88 96/77/88 95/102/88
f 91/101/89 48/63/89 47/86/89
f 92/67/90 94/87/90 91/101/90
f 58/73/91 101/64/91 48/63/91
f 105/103/92 102/93/92 101/64/92
f 54/70/21 103/104/21 99/105/21
f 99/105/21 104/72/21 100/62/21
f 65/83/93 106/106/93 103/104/93
f 103/104/94 105/103/94 104/72/94
f 54/70/95 102/93/95 55/95/95
f 99/105/95 101/64/95 102/93/95
f 40/1/1 41/59/1 2/2/1
f 33/4/2 4/7/2 3/5/2
f 4/7/3 6/35/3 5/8/3
f 72/9/4 9/49/4 8/10/4
f 27/12/96 84/53/96 74/13/96
f 44/15/97 11/32/97 12/16/97
f 13/18/98 14/22/98 37/19/98
f 15/21/99 16/36/99 14/22/99
f 25/23/100 17/40/100 18/24/100
f 19/26/101 20/43/101 69/27/101
f 29/29/102 21/37/102 70/30/102
f 40/1/103 1/3/103 11/32/103
f 3/5/104 13/18/104 36/20/104
f 34/33/105 2/2/105 12/16/105
f 5/8/106 15/21/106 13/18/106
f 6/35/107 4/7/107 14/22/107
f 6/35/17 16/36/17 15/21/17
f 21/37/108 26/47/108 24/38/108
f 10/14/109 21/37/109 29/29/109
f 73/39/110 18/24/110 17/40/110
f 8/10/21 19/26/21 68/28/21
f 42/42/111 9/49/111 20/43/111
f 22/45/112 7/41/112 17/40/112
f 23/46/113 22/45/113 25/23/113
f 10/14/114 23/46/114 26/47/114
f 26/47/115 25/23/115 78/25/115
f 28/48/116 30/50/116 20/43/116
f 27/12/117 29/29/117 30/50/117
f 20/43/118 30/50/118 87/51/118
f 30/50/119 29/29/119 88/31/119
f 9/49/120 72/9/120 83/52/120
f 28/48/121 83/52/121 84/53/121
f 73/39/122 7/41/122 22/45/122
f 23/46/123 90/55/123 89/54/123
f 90/55/124 23/46/124 10/14/124
f 4/7/125 33/4/125 37/19/125
f 33/4/126 34/33/126 38/34/126
f 31/57/127 35/58/127 11/32/127
f 32/6/128 36/20/128 35/58/128
f 35/58/129 38/34/129 12/16/129
f 36/20/130 37/19/130 38/34/130
f 2/2/42 34/33/42 31/57/42
f 34/33/43 33/4/43 32/6/43
f 41/59/131 45/17/131 12/16/131
f 42/42/132 46/44/132 45/17/132
f 8/10/21 39/61/21 43/60/21
f 39/61/21 40/1/21 44/15/21
f 19/26/133 43/60/133 46/44/133
f 43/60/134 44/15/134 45/17/134
f 8/10/48 9/49/48 42/42/48
f 39/61/48 42/42/48 41/59/48
f 100/62/49 47/86/49 48/63/49
f 49/65/50 50/69/50 93/66/50
f 51/68/51 52/88/51 50/69/51
f 54/70/52 55/95/52 72/9/52
f 81/71/135 56/91/135 74/13/135
f 104/72/136 105/103/136 58/73/136
f 97/75/137 60/78/137 59/76/137
f 60/78/138 62/107/138 61/79/138
f 79/80/139 78/25/139 64/81/139
f 69/27/140 66/94/140 65/83/140
f 85/84/141 88/31/141 70/30/141
f 100/62/142 104/72/142 57/74/142
f 96/77/143 59/76/143 49/65/143
f 94/87/144 98/100/144 58/73/144
f 59/76/145 61/79/145 51/68/145
f 52/88/146 62/107/146 60/78/146
f 61/79/65 62/107/65 52/88/65
f 67/85/147 70/30/147 77/89/147
f 85/84/148 67/85/148 56/91/148
f 63/82/149 64/81/149 73/39/149
f 68/28/21 65/83/21 54/70/21
f 102/93/150 106/106/150 66/94/150
f 75/96/151 79/80/151 63/82/151
f 76/97/152 80/90/152 79/80/152
f 56/91/153 67/85/153 80/90/153
f 80/90/154 77/89/154 78/25/154
f 66/94/155 86/99/155 82/98/155
f 86/99/156 85/84/156 81/71/156
f 66/94/157 69/27/157 87/51/157
f 86/99/158 87/51/158 88/31/158
f 55/95/159 82/98/159 83/52/159
f 82/98/160 81/71/160 84/53/160
f 73/39/161 89/54/161 75/96/161
f 76/97/162 75/96/162 89/54/162
f 56/91/163 76/97/163 90/55/163
f 50/69/164 60/78/164 97/75/164
f 93/66/165 97/75/165 98/100/165
f 57/74/166 95/102/166 91/101/166
f 95/102/167 96/77/167 92/67/167
f 58/73/168 98/100/168 95/102/168
f 98/100/169 97/75/169 96/77/169
f 91/101/89 94/87/89 48/63/89
f 92/67/90 93/66/90 94/87/90
f 58/73/170 105/103/170 101/64/170
f 105/103/171 106/106/171 102/93/171
f 54/70/21 65/83/21 103/104/21
f 99/105/21 103/104/21 104/72/21
f 65/83/172 66/94/172 106/106/172
f 103/104/173 106/106/173 105/103/173
f 54/70/95 99/105/95 102/93/95
f 99/105/95 100/62/95 101/64/95
l 24 90
l 74 70
l 78 89
l 77 90
