# Blender v2.90.0 OBJ File: 'SteeringWheel2.blend'
# www.blender.org
mtllib SteeringWheel2.mtl
o SteeringWheel2_Cylinder
v 0.000078 -0.060280 -0.302732
v 0.000078 -0.133062 -0.276818
v 0.163417 -0.026166 -0.262077
v 0.179247 -0.095642 -0.232222
v 0.264366 0.063146 -0.155639
v 0.289980 0.002326 -0.115469
v 0.264366 0.173542 -0.024074
v 0.289980 0.123421 0.028847
v 0.163417 0.262854 0.082364
v 0.179247 0.221389 0.145600
v 0.000078 0.296968 0.123019
v 0.000078 0.258809 0.190196
v -0.163262 0.262854 0.082364
v -0.179092 0.221389 0.145600
v -0.264211 0.173542 -0.024074
v -0.289825 0.123421 0.028847
v -0.264211 0.063146 -0.155639
v -0.289825 0.002326 -0.115469
v -0.163262 -0.026166 -0.262077
v -0.179092 -0.095642 -0.232222
v 0.000078 -0.324167 -0.617221
v 0.179247 -0.296469 -0.584211
v 0.179247 -0.351940 -0.537666
v 0.000078 -0.379638 -0.570675
v -0.179092 -0.351940 -0.537666
v -0.179092 -0.296469 -0.584211
v 0.179247 0.459691 0.429598
v 0.179247 0.515162 0.383053
v -0.001784 0.554382 0.429793
v -0.001784 0.498911 0.476338
v -0.179092 0.515162 0.383053
v -0.179092 0.459691 0.429598
v 0.000078 -0.077592 -0.323363
v 0.179247 -0.040171 -0.278768
v 0.289980 0.057797 -0.162014
v 0.289980 0.178891 -0.017699
v 0.179247 0.276859 0.099055
v 0.000078 0.314280 0.143651
v -0.179092 0.276859 0.099055
v -0.289825 0.178891 -0.017699
v -0.289825 0.057796 -0.162014
v -0.179092 -0.040171 -0.278768
v 0.000078 0.021640 -0.306049
v 0.133960 0.049601 -0.272726
v 0.216703 0.122806 -0.185483
v 0.216703 0.213293 -0.077646
v 0.133960 0.286498 0.009597
v 0.000078 0.314460 0.042920
v -0.133805 0.286498 0.009597
v -0.216548 0.213293 -0.077646
v -0.216548 0.122806 -0.185483
v -0.133804 0.049601 -0.272726
v -0.041140 -0.096841 -0.346304
v -0.137875 -0.076637 -0.322226
v -0.137875 -0.275025 -0.558655
v -0.041140 -0.301259 -0.589920
v 0.138030 -0.076637 -0.322226
v 0.041295 -0.096841 -0.346304
v 0.041295 -0.301259 -0.589920
v 0.138030 -0.275025 -0.558655
v 0.041295 0.333529 0.166591
v 0.138030 0.313325 0.142513
v 0.138030 0.493718 0.357497
v 0.039433 0.531474 0.402492
v -0.137875 0.313325 0.142513
v -0.041140 0.333529 0.166591
v -0.043001 0.531474 0.402492
v -0.137875 0.493718 0.357497
v -0.137875 -0.103124 -0.300001
v -0.041140 -0.123328 -0.324078
v -0.041140 -0.327746 -0.567695
v -0.137875 -0.301512 -0.536430
v 0.041295 -0.123328 -0.324078
v 0.138030 -0.103124 -0.300001
v 0.138030 -0.301512 -0.536430
v 0.041295 -0.327746 -0.567695
v 0.138030 0.286838 0.164738
v 0.041295 0.307042 0.188816
v 0.039433 0.504987 0.424718
v 0.138030 0.467231 0.379722
v -0.041140 0.307042 0.188816
v -0.137875 0.286838 0.164738
v -0.137875 0.467231 0.379722
v -0.043001 0.504987 0.424718
v 0.000078 -2.734422 1.925184
v 0.000078 -0.094517 -0.193751
v 0.187948 -2.655746 1.999850
v 0.187948 -0.024964 -0.110860
v 0.187948 -2.498392 2.149182
v 0.187948 0.114144 0.054921
v 0.000078 -2.419715 2.223848
v 0.000078 0.183697 0.137812
v -0.187792 -2.498392 2.149182
v -0.187792 0.114143 0.054921
v -0.187792 -2.655746 1.999850
v -0.187792 -0.024964 -0.110860
v 0.000078 -0.440218 -0.516460
v 0.478784 -0.315003 -0.362711
v 0.676965 -0.012868 0.008275
v 0.478784 0.289267 0.379262
v 0.000078 0.414482 0.533011
v -0.478629 0.289267 0.379262
v -0.676810 -0.012868 0.008275
v -0.478629 -0.315003 -0.362711
v 0.000078 -0.649711 -0.762749
v 0.707184 -0.464754 -0.535643
v 1.000078 -0.018227 0.012640
v 0.707184 0.428300 0.560922
v 0.000077 0.613257 0.788028
v -0.707029 0.428300 0.560922
v -0.999922 -0.018227 0.012640
v -0.707029 -0.464754 -0.535643
v 0.000078 -0.243036 -0.758060
v 0.000078 -0.249411 -0.671855
v 0.478784 -0.124196 -0.518106
v 0.523167 -0.106212 -0.590056
v 0.676965 0.177939 -0.147119
v 0.739754 0.223982 -0.184617
v 0.478784 0.480073 0.223867
v 0.523167 0.554175 0.220822
v 0.000078 0.605289 0.377616
v 0.000078 0.690999 0.388825
v -0.478629 0.480073 0.223867
v -0.523012 0.554175 0.220821
v -0.676810 0.177939 -0.147119
v -0.739599 0.223982 -0.184617
v -0.478629 -0.124196 -0.518106
v -0.523012 -0.106212 -0.590056
v 0.662801 -0.191210 -0.701116
v 0.707184 -0.263229 -0.699767
v 0.000078 -0.448187 -0.926872
v 0.000078 -0.364559 -0.913967
v 0.937289 0.227258 -0.187286
v 1.000078 0.183298 -0.151484
v 0.662801 0.645726 0.326544
v 0.707184 0.629825 0.396798
v 0.000077 0.819075 0.539396
v 0.000077 0.814782 0.623904
v -0.662646 0.645726 0.326544
v -0.707029 0.629825 0.396798
v -0.937134 0.227258 -0.187286
v -0.999922 0.183298 -0.151484
v -0.662646 -0.191210 -0.701115
v -0.707029 -0.263229 -0.699766
vt 0.600000 1.000000
vt 0.500000 0.500000
vt 0.600000 0.500000
vt 0.400000 1.000000
vt 0.400000 0.500000
vt 1.000000 0.892937
vt 0.833333 0.500000
vt 1.000000 0.500000
vt 0.833333 0.892937
vt 0.666667 0.500000
vt 0.666667 0.892937
vt 0.500000 0.500000
vt 0.250000 0.132056
vt 0.457846 0.252075
vt 0.250000 0.612131
vt 0.333333 0.892937
vt 0.333333 0.500000
vt 0.166667 0.892937
vt 0.166667 0.500000
vt 0.750000 0.010000
vt 0.542154 0.130000
vt 0.542154 0.370000
vt 0.875000 0.500000
vt 0.750000 0.908729
vt 0.750000 0.500000
vt 0.125000 0.500000
vt 0.000000 0.908729
vt 0.000000 0.500000
vt 0.625000 0.908729
vt 0.500000 0.500000
vt 0.625000 0.500000
vt 0.500000 0.908729
vt 0.375000 0.500000
vt 0.375000 0.908729
vt 0.250000 0.500000
vt 0.250000 0.908729
vt 0.750000 0.419800
vt 0.919706 0.419706
vt 0.870112 0.370048
vt 0.345420 0.419800
vt 0.629888 0.370048
vt 0.990000 0.250000
vt 0.919837 0.250000
vt 0.465532 0.129952
vt 0.870112 0.129952
vt 0.919706 0.080294
vt 0.750000 0.080200
vt 0.345420 0.080200
vt 0.750000 0.010000
vt 0.629888 0.129952
vt 0.225308 0.129952
vt 0.580294 0.080294
vt 0.580163 0.250000
vt 0.175583 0.250000
vt 0.510000 0.250000
vt 0.225308 0.370048
vt 0.580294 0.419706
vt 1.000000 0.908729
vt 1.000000 0.500000
vt 0.750000 0.490000
vt 0.515257 0.250000
vt 0.250000 0.433441
vt 0.089932 0.410056
vt 0.120251 0.379698
vt 0.023634 0.250000
vt 0.066528 0.250000
vt 0.120251 0.120302
vt 0.089932 0.089944
vt 0.250000 0.066559
vt 0.250000 0.023641
vt 0.410068 0.089944
vt 0.379749 0.120302
vt 0.476366 0.250000
vt 0.433472 0.250000
vt 0.379749 0.379698
vt 0.410068 0.410056
vt 0.250000 0.476359
vt -0.000000 0.892937
vt -0.000000 0.500000
vt 0.875000 0.908729
vt 0.996074 1.000000
vt 0.878920 1.000000
vt 0.871070 1.000000
vt 0.753924 1.000000
vt 0.628930 1.000000
vt 0.503926 1.000000
vt 0.496074 1.000000
vt 0.378920 1.000000
vt 0.371070 1.000000
vt 0.253924 1.000000
vt 0.128930 1.000000
vt 0.125000 0.908729
vt 0.003926 1.000000
vt 0.465531 0.370048
vt 0.500000 1.000000
vt 0.500000 0.892937
vt 0.457846 0.492112
vt 0.042154 0.492112
vt 0.042154 0.252075
vt 0.750000 0.490000
vt 0.957846 0.370000
vt 0.957846 0.130000
vt 0.746076 1.000000
vt 0.621080 1.000000
vt 0.246076 1.000000
vt 0.121080 1.000000
vt 0.782452 0.020544
vt 0.858616 0.045292
vt 0.782452 0.020544
vt 0.800000 0.500000
vt 0.900000 1.000000
vt 0.900000 0.500000
vt 0.700000 0.500000
vt 0.800000 1.000000
vt 0.600000 0.500000
vt 0.700000 1.000000
vt 0.250000 0.010000
vt 0.108932 0.055836
vt 0.108932 0.055836
vt 0.600000 1.000000
vt 0.400000 0.500000
vt 0.300000 1.000000
vt 0.400000 1.000000
vt 0.300000 0.500000
vt 0.200000 1.000000
vt 0.391068 0.055836
vt 0.021746 0.324164
vt 0.250000 0.490000
vt 0.200000 0.500000
vt 0.100000 1.000000
vt 0.391068 0.444164
vt 0.391068 0.444164
vt 0.750000 0.031205
vt 0.621395 0.072991
vt 0.750000 0.031205
vt 1.000000 0.500000
vt 0.900000 1.000000
vt 1.000000 1.000000
vt -0.000000 0.500000
vt 0.100000 1.000000
vt 0.100000 0.500000
vt 0.717548 0.479456
vt 0.717548 0.479456
vt 0.717548 0.479456
vt 0.108932 0.444164
vt 0.108932 0.444164
vt 0.100000 0.500000
vt 0.858616 0.454708
vt 0.782452 0.479456
vt 0.782452 0.479456
vt 0.641384 0.454709
vt 0.391068 0.055836
vt 0.878605 0.427009
vt 0.750000 0.490000
vt 0.750000 0.468795
vt 0.978254 0.324164
vt 0.958087 0.317612
vt 0.978254 0.175836
vt 0.958087 0.182389
vt 0.891068 0.055836
vt 0.878605 0.072991
vt 0.750000 0.010000
vt 0.541913 0.182389
vt 0.608932 0.055836
vt 0.521746 0.324164
vt 0.541913 0.317611
vt 0.621396 0.427009
vt 0.541913 0.182389
vt 0.958087 0.182389
vt 0.958087 0.317612
vt 0.621396 0.427009
vt 0.621395 0.072991
vt 0.878605 0.072991
vt 0.750000 0.468795
vt 0.878605 0.427009
vt 0.541913 0.317611
vt 0.608932 0.444164
vt 0.608932 0.444164
vt 0.750000 0.490000
vt 0.891068 0.444164
vt 0.782452 0.479456
vt 0.891068 0.444164
vt 0.891068 0.055836
vt 0.782452 0.020544
vt 0.750000 0.010000
vt 0.641384 0.045292
vt 0.717548 0.020544
vt 0.608932 0.055836
vt 0.641384 0.454709
vt 0.641384 0.454709
vt 0.858616 0.454708
vt 0.858616 0.454708
vt 0.858616 0.045292
vt 0.858616 0.045292
vt 0.641384 0.045292
vt 0.717548 0.020544
vt 0.641384 0.045292
vt 0.858616 0.454708
vt 0.717548 0.020544
vt 0.641384 0.454709
vt 0.782452 0.020544
vt 0.641384 0.045292
vt 0.858616 0.045292
vt 0.782452 0.479456
vt 0.717548 0.020544
vt 0.250000 0.010000
vt 0.478254 0.324164
vt 0.478254 0.175836
vt 0.021746 0.175836
vt 0.250000 0.490000
vt 0.900000 0.500000
vt -0.000000 1.000000
vt 0.717548 0.479456
vt 0.521746 0.175836
vn -0.3194 -0.6091 -0.7259
vn 0.3254 -0.6078 -0.7244
vn 0.4966 -0.5433 -0.6769
vn 1.0000 0.0000 0.0000
vn 0.4965 0.5429 0.6773
vn -0.0000 0.7660 -0.6428
vn -0.4965 0.5429 0.6773
vn -1.0000 0.0000 0.0000
vn 0.0000 -0.6884 0.7254
vn 0.9239 -0.2417 -0.2967
vn -0.3827 -0.5834 -0.7164
vn 0.3827 0.5834 0.7164
vn -0.3827 0.5834 0.7164
vn -0.9239 0.2417 0.2967
vn -0.9239 -0.2417 -0.2967
vn 0.9239 0.2417 0.2967
vn -0.0089 -0.7617 0.6479
vn -0.0214 -0.7696 0.6382
vn -0.0214 -0.7808 0.6244
vn -0.0089 -0.7887 0.6147
vn 0.3827 -0.5834 -0.7164
vn 0.0089 -0.7887 0.6147
vn 0.0214 -0.7808 0.6244
vn 0.0214 -0.7696 0.6382
vn 0.0089 -0.7617 0.6479
vn 0.0089 0.7887 -0.6147
vn 0.0214 0.7808 -0.6244
vn 0.0214 0.7696 -0.6382
vn 0.0089 0.7617 -0.6479
vn -0.0089 0.7617 -0.6479
vn -0.0214 0.7696 -0.6382
vn -0.0214 0.7808 -0.6244
vn -0.0089 0.7887 -0.6147
vn -0.4966 -0.5433 -0.6769
vn 0.2674 0.1470 -0.9523
vn 0.6458 0.3856 -0.6590
vn 0.6458 0.7234 -0.2442
vn 0.2674 0.9623 0.0489
vn -0.2674 0.9623 0.0489
vn -0.6458 0.7234 -0.2442
vn -0.6458 0.3856 -0.6590
vn -0.2674 0.1470 -0.9523
vn -0.2737 0.9592 0.0709
vn -0.6609 0.7147 -0.2290
vn -0.6609 0.3690 -0.6535
vn -0.2737 0.1247 -0.9537
vn 0.2737 0.1247 -0.9537
vn 0.6609 0.3690 -0.6535
vn 0.6609 0.7147 -0.2290
vn 0.2737 0.9592 0.0709
vn 0.4990 -0.5423 -0.6759
vn 0.4990 0.5419 0.6763
vn -0.4990 0.5419 0.6763
vn -0.4990 -0.5423 -0.6759
vn 0.3090 0.6113 0.7286
vn 0.8090 -0.3778 -0.4503
vn 0.8090 0.3778 0.4503
vn 0.0000 -0.7660 0.6428
vn -0.8090 0.3778 0.4503
vn -0.8090 -0.3778 -0.4503
vn -0.2490 0.9462 0.2066
vn 0.2338 -0.6250 -0.7448
vn -0.2338 -0.6250 -0.7448
vn 0.3090 -0.6113 -0.7286
vn -0.3090 -0.6113 -0.7286
vn 0.8059 0.4535 -0.3805
vn -0.2490 -0.0392 -0.9677
vn -0.6520 0.7580 -0.0176
vn 0.6520 0.7580 -0.0176
vn 0.2490 -0.0392 -0.9677
vn -0.8059 0.4535 -0.3805
vn 0.2490 0.9462 0.2066
vn 0.6520 0.1490 -0.7434
vn -0.6520 0.1490 -0.7434
vn -0.3090 0.6113 0.7286
vn 1.0000 0.0039 0.0046
vn 0.3887 0.5922 0.7058
vn -0.3887 0.5922 0.7058
vn -1.0000 -0.0039 -0.0046
vn -0.5118 -0.5522 -0.6581
vn 0.5264 -0.5465 -0.6513
usemtl Black_SteeringWheel2
s off
f 27/1/1 29/2/1 28/3/1
f 29/2/2 32/4/2 31/5/2
f 86/6/3 87/7/3 85/8/3
f 88/9/4 89/10/4 87/7/4
f 90/11/5 91/12/5 89/10/5
f 92/13/6 90/14/6 86/15/6
f 91/12/7 94/16/7 93/17/7
f 93/17/8 96/18/8 95/19/8
f 91/20/9 93/21/9 95/22/9
f 106/23/10 134/24/10 107/25/10
f 112/26/11 131/27/11 105/28/11
f 136/29/12 109/30/12 108/31/12
f 138/32/13 110/33/13 109/30/13
f 140/34/14 111/35/14 110/33/14
f 142/36/15 112/26/15 111/35/15
f 134/24/16 108/31/16 107/25/16
f 97/37/17 106/38/17 98/39/17
f 114/40/12 104/41/12 97/37/12
f 98/39/18 107/42/18 99/43/18
f 119/44/15 99/43/15 100/45/15
f 100/45/19 107/42/19 108/46/19
f 119/44/11 101/47/11 121/48/11
f 101/47/20 108/46/20 109/49/20
f 121/48/21 102/50/21 123/51/21
f 101/47/22 110/52/22 102/50/22
f 123/51/10 103/53/10 125/54/10
f 102/50/23 111/55/23 103/53/23
f 127/56/16 103/53/16 104/41/16
f 104/41/24 111/55/24 112/57/24
f 131/58/21 106/23/21 105/59/21
f 97/37/25 112/57/25 105/60/25
f 117/61/14 98/39/14 99/43/14
f 113/62/26 143/63/26 128/64/26
f 128/64/27 141/65/27 126/66/27
f 124/67/28 141/65/28 139/68/28
f 122/69/29 139/68/29 137/70/29
f 122/69/30 135/71/30 120/72/30
f 120/72/31 133/73/31 118/74/31
f 116/75/32 133/73/32 129/76/32
f 113/62/33 129/76/33 132/77/33
f 95/19/34 86/78/34 85/79/34
f 130/80/35 132/81/35 129/82/35
f 134/24/36 129/83/36 133/84/36
f 134/24/37 135/85/37 136/29/37
f 136/29/38 137/86/38 138/32/38
f 140/34/39 137/87/39 139/88/39
f 142/36/40 139/89/40 141/90/40
f 142/36/41 143/91/41 144/92/41
f 144/92/42 132/93/42 131/27/42
f 116/75/43 114/40/43 115/94/43
f 118/74/44 115/94/44 117/61/44
f 118/74/45 119/44/45 120/72/45
f 120/72/46 121/48/46 122/69/46
f 124/67/47 121/48/47 123/51/47
f 126/66/48 123/51/48 125/54/48
f 126/66/49 127/56/49 128/64/49
f 128/64/50 114/40/50 113/62/50
f 114/40/13 98/39/13 115/94/13
f 27/1/1 30/95/1 29/2/1
f 29/2/2 30/95/2 32/4/2
f 86/6/51 88/9/51 87/7/51
f 88/9/4 90/11/4 89/10/4
f 90/11/52 92/96/52 91/12/52
f 90/14/6 88/97/6 86/15/6
f 86/15/6 96/98/6 94/99/6
f 94/99/6 92/13/6 86/15/6
f 91/12/53 92/96/53 94/16/53
f 93/17/8 94/16/8 96/18/8
f 95/22/9 85/100/9 87/101/9
f 87/101/9 89/102/9 95/22/9
f 89/102/9 91/20/9 95/22/9
f 106/23/10 130/80/10 134/24/10
f 112/26/11 144/92/11 131/27/11
f 136/29/12 138/32/12 109/30/12
f 138/32/13 140/34/13 110/33/13
f 140/34/14 142/36/14 111/35/14
f 142/36/15 144/92/15 112/26/15
f 134/24/16 136/29/16 108/31/16
f 97/37/17 105/60/17 106/38/17
f 114/40/12 127/56/12 104/41/12
f 98/39/18 106/38/18 107/42/18
f 119/44/15 117/61/15 99/43/15
f 100/45/19 99/43/19 107/42/19
f 119/44/11 100/45/11 101/47/11
f 101/47/20 100/45/20 108/46/20
f 121/48/21 101/47/21 102/50/21
f 101/47/22 109/49/22 110/52/22
f 123/51/10 102/50/10 103/53/10
f 102/50/23 110/52/23 111/55/23
f 127/56/16 125/54/16 103/53/16
f 104/41/24 103/53/24 111/55/24
f 131/58/21 130/80/21 106/23/21
f 97/37/25 104/41/25 112/57/25
f 117/61/14 115/94/14 98/39/14
f 113/62/26 132/77/26 143/63/26
f 128/64/27 143/63/27 141/65/27
f 124/67/28 126/66/28 141/65/28
f 122/69/29 124/67/29 139/68/29
f 122/69/30 137/70/30 135/71/30
f 120/72/31 135/71/31 133/73/31
f 116/75/32 118/74/32 133/73/32
f 113/62/33 116/75/33 129/76/33
f 95/19/54 96/18/54 86/78/54
f 130/80/35 131/58/35 132/81/35
f 134/24/36 130/80/36 129/83/36
f 134/24/37 133/103/37 135/85/37
f 136/29/38 135/104/38 137/86/38
f 140/34/39 138/32/39 137/87/39
f 142/36/40 140/34/40 139/89/40
f 142/36/41 141/105/41 143/91/41
f 144/92/42 143/106/42 132/93/42
f 116/75/43 113/62/43 114/40/43
f 118/74/44 116/75/44 115/94/44
f 118/74/45 117/61/45 119/44/45
f 120/72/46 119/44/46 121/48/46
f 124/67/47 122/69/47 121/48/47
f 126/66/48 124/67/48 123/51/48
f 126/66/49 125/54/49 127/56/49
f 128/64/50 127/56/50 114/40/50
f 114/40/13 97/37/13 98/39/13
usemtl DarkBlue_SteeringWheel2
f 78/107/55 62/108/55 61/109/55
f 35/110/56 4/111/56 34/112/56
f 36/113/4 6/114/4 35/110/4
f 37/115/57 8/116/57 36/113/57
f 12/117/58 32/118/58 14/119/58
f 37/115/4 27/1/4 10/120/4
f 39/121/59 16/122/59 14/123/59
f 40/124/8 18/125/8 16/122/8
f 10/126/58 18/127/58 2/128/58
f 41/129/60 20/130/60 18/125/60
f 2/128/58 23/131/58 4/132/58
f 48/133/61 13/134/61 11/135/61
f 21/136/62 23/137/62 24/138/62
f 21/139/63 25/140/63 26/141/63
f 56/142/8 70/143/8 53/144/8
f 25/145/58 2/128/58 20/146/58
f 42/147/8 25/140/8 20/130/8
f 23/137/4 34/112/4 4/111/4
f 57/148/64 73/149/64 58/150/64
f 32/4/8 39/121/8 14/123/8
f 70/143/65 54/151/65 53/144/65
f 27/152/58 12/117/58 10/126/58
f 3/153/6 33/154/6 1/155/6
f 35/156/6 3/153/6 5/157/6
f 36/158/6 5/157/6 7/159/6
f 37/160/6 7/159/6 9/161/6
f 38/162/6 9/161/6 11/135/6
f 13/134/6 38/162/6 11/135/6
f 15/163/6 39/164/6 13/134/6
f 41/165/6 15/163/6 17/166/6
f 19/167/6 41/165/6 17/166/6
f 33/154/6 19/167/6 1/155/6
f 50/168/6 48/133/6 46/169/6
f 45/170/66 7/159/66 5/157/66
f 52/171/67 1/155/67 19/167/67
f 49/172/68 15/163/68 13/134/68
f 7/159/69 47/173/69 9/161/69
f 43/174/70 3/153/70 1/155/70
f 50/168/71 17/166/71 15/163/71
f 9/161/72 48/133/72 11/135/72
f 44/175/73 5/157/73 3/153/73
f 51/176/74 19/167/74 17/166/74
f 33/154/6 54/151/6 42/177/6
f 54/151/6 26/178/6 42/177/6
f 26/178/6 56/142/6 21/179/6
f 56/142/6 33/154/6 21/179/6
f 57/148/6 33/154/6 34/180/6
f 33/154/6 59/181/6 21/179/6
f 59/181/6 22/182/6 21/179/6
f 22/182/6 57/148/6 34/180/6
f 38/162/6 62/108/6 37/160/6
f 62/108/6 28/183/6 37/160/6
f 28/183/6 64/184/6 29/185/6
f 64/184/6 38/162/6 29/185/6
f 65/186/6 38/162/6 39/164/6
f 38/162/6 67/187/6 29/185/6
f 67/187/6 31/188/6 29/185/6
f 31/188/6 65/186/6 39/164/6
f 70/143/6 72/189/6 69/190/6
f 75/191/6 73/149/6 74/192/6
f 78/107/6 80/193/6 77/194/6
f 83/195/6 81/196/6 82/197/6
f 75/191/8 57/148/8 60/198/8
f 82/197/75 66/199/75 65/186/75
f 69/190/4 55/200/4 54/151/4
f 79/201/76 61/109/76 64/184/76
f 73/149/4 59/181/4 58/150/4
f 68/202/4 82/197/4 65/186/4
f 72/189/77 56/142/77 55/200/77
f 77/194/8 63/203/8 62/108/8
f 76/204/78 60/198/78 59/181/78
f 81/196/79 67/187/79 66/199/79
f 80/193/80 64/184/80 63/203/80
f 84/205/81 68/202/81 67/187/81
f 78/107/55 77/194/55 62/108/55
f 35/110/56 6/114/56 4/111/56
f 36/113/4 8/116/4 6/114/4
f 37/115/57 10/120/57 8/116/57
f 12/117/58 30/206/58 32/118/58
f 37/115/4 28/3/4 27/1/4
f 39/121/59 40/124/59 16/122/59
f 40/124/8 41/129/8 18/125/8
f 2/128/58 4/132/58 6/207/58
f 6/207/58 8/208/58 2/128/58
f 8/208/58 10/126/58 2/128/58
f 10/126/58 12/117/58 14/119/58
f 14/119/58 16/209/58 18/127/58
f 18/127/58 20/146/58 2/128/58
f 10/126/58 14/119/58 18/127/58
f 41/129/60 42/147/60 20/130/60
f 2/128/58 24/210/58 23/131/58
f 48/133/61 49/172/61 13/134/61
f 21/136/62 22/211/62 23/137/62
f 21/139/63 24/212/63 25/140/63
f 56/142/8 71/213/8 70/143/8
f 25/145/58 24/210/58 2/128/58
f 42/147/8 26/141/8 25/140/8
f 23/137/4 22/211/4 34/112/4
f 57/148/64 74/192/64 73/149/64
f 32/4/8 31/5/8 39/121/8
f 70/143/65 69/190/65 54/151/65
f 27/152/58 30/206/58 12/117/58
f 3/153/6 34/180/6 33/154/6
f 35/156/6 34/180/6 3/153/6
f 36/158/6 35/156/6 5/157/6
f 37/160/6 36/158/6 7/159/6
f 38/162/6 37/160/6 9/161/6
f 13/134/6 39/164/6 38/162/6
f 15/163/6 40/214/6 39/164/6
f 41/165/6 40/214/6 15/163/6
f 19/167/6 42/177/6 41/165/6
f 33/154/6 42/177/6 19/167/6
f 44/175/6 43/174/6 52/171/6
f 52/171/6 51/176/6 50/168/6
f 50/168/6 49/172/6 48/133/6
f 48/133/6 47/173/6 46/169/6
f 46/169/6 45/170/6 44/175/6
f 44/175/6 52/171/6 46/169/6
f 52/171/6 50/168/6 46/169/6
f 45/170/66 46/169/66 7/159/66
f 52/171/67 43/174/67 1/155/67
f 49/172/68 50/168/68 15/163/68
f 7/159/69 46/169/69 47/173/69
f 43/174/70 44/175/70 3/153/70
f 50/168/71 51/176/71 17/166/71
f 9/161/72 47/173/72 48/133/72
f 44/175/73 45/170/73 5/157/73
f 51/176/74 52/171/74 19/167/74
f 33/154/6 53/144/6 54/151/6
f 54/151/6 55/200/6 26/178/6
f 26/178/6 55/200/6 56/142/6
f 56/142/6 53/144/6 33/154/6
f 57/148/6 58/150/6 33/154/6
f 33/154/6 58/150/6 59/181/6
f 59/181/6 60/198/6 22/182/6
f 22/182/6 60/198/6 57/148/6
f 38/162/6 61/109/6 62/108/6
f 62/108/6 63/203/6 28/183/6
f 28/183/6 63/203/6 64/184/6
f 64/184/6 61/109/6 38/162/6
f 65/186/6 66/199/6 38/162/6
f 38/162/6 66/199/6 67/187/6
f 67/187/6 68/202/6 31/188/6
f 31/188/6 68/202/6 65/186/6
f 70/143/6 71/213/6 72/189/6
f 75/191/6 76/204/6 73/149/6
f 78/107/6 79/201/6 80/193/6
f 83/195/6 84/205/6 81/196/6
f 75/191/8 74/192/8 57/148/8
f 82/197/75 81/196/75 66/199/75
f 69/190/4 72/189/4 55/200/4
f 79/201/76 78/107/76 61/109/76
f 73/149/4 76/204/4 59/181/4
f 68/202/4 83/195/4 82/197/4
f 72/189/77 71/213/77 56/142/77
f 77/194/8 80/193/8 63/203/8
f 76/204/78 75/191/78 60/198/78
f 81/196/79 84/205/79 67/187/79
f 80/193/80 79/201/80 64/184/80
f 84/205/81 83/195/81 68/202/81
