# Blender v2.90.0 OBJ File: 'Wheels1.blend'
# www.blender.org
mtllib Wheels1.mtl
o Wheels1_Cylinder.004
v 1.904570 0.914084 4.266030
v 3.192308 0.606874 4.266030
v 1.904570 0.707913 3.631500
v 3.192308 0.459375 3.812073
v 1.904570 0.168149 3.239339
v 3.192308 0.073216 3.531513
v 1.904570 -0.499035 3.239339
v 3.192308 -0.404102 3.531513
v 1.904570 -1.038798 3.631500
v 3.192308 -0.790260 3.812073
v 1.904570 -1.244970 4.266030
v 3.192308 -0.937760 4.266030
v 1.904570 -1.038798 4.900560
v 3.192308 -0.790260 4.719986
v 1.904570 -0.499035 5.292721
v 3.192308 -0.404102 5.000547
v 1.904570 0.168150 5.292721
v 3.192308 0.073216 5.000547
v 1.904571 0.707913 4.900559
v 3.192308 0.459375 4.719986
v 3.192308 0.707913 3.631500
v 3.192308 0.914084 4.266030
v 3.192308 0.168149 3.239339
v 3.192308 -0.499035 3.239339
v 3.192308 -1.038798 3.631500
v 3.192308 -1.244970 4.266030
v 3.192308 -1.038798 4.900560
v 3.192308 -0.499035 5.292721
v 3.192308 0.168149 5.292721
v 3.192308 0.707913 4.900559
v 3.032495 0.284532 3.939104
v 3.032495 0.390757 4.266030
v 3.032495 0.006432 3.737053
v 3.032495 -0.337318 3.737053
v 3.032495 -0.615418 3.939104
v 3.032495 -0.721642 4.266030
v 3.032495 -0.615418 4.592956
v 3.032495 -0.337318 4.795007
v 3.032495 0.006432 4.795007
v 3.032495 0.284532 4.592956
v -1.904570 0.914084 4.266030
v -3.192307 0.606874 4.266030
v -1.904570 0.707913 3.631500
v -3.192307 0.459375 3.812073
v -1.904570 0.168149 3.239339
v -3.192307 0.073216 3.531513
v -1.904570 -0.499035 3.239339
v -3.192307 -0.404102 3.531513
v -1.904570 -1.038798 3.631500
v -3.192307 -0.790260 3.812073
v -1.904570 -1.244969 4.266030
v -3.192307 -0.937760 4.266030
v -1.904570 -1.038798 4.900560
v -3.192307 -0.790260 4.719986
v -1.904570 -0.499035 5.292721
v -3.192307 -0.404102 5.000547
v -1.904570 0.168150 5.292721
v -3.192307 0.073216 5.000547
v -1.904570 0.707913 4.900559
v -3.192307 0.459375 4.719986
v -3.192307 0.707913 3.631500
v -3.192307 0.914084 4.266030
v -3.192307 0.168149 3.239339
v -3.192307 -0.499035 3.239339
v -3.192307 -1.038798 3.631500
v -3.192307 -1.244969 4.266030
v -3.192307 -1.038798 4.900560
v -3.192307 -0.499035 5.292721
v -3.192307 0.168150 5.292721
v -3.192307 0.707913 4.900559
v -3.032494 0.284532 3.939104
v -3.032494 0.390757 4.266030
v -3.032494 0.006432 3.737053
v -3.032494 -0.337318 3.737053
v -3.032494 -0.615418 3.939104
v -3.032494 -0.721642 4.266030
v -3.032494 -0.615418 4.592956
v -3.032494 -0.337318 4.795007
v -3.032494 0.006432 4.795007
v -3.032494 0.284532 4.592956
v 2.467706 1.595410 -4.266033
v 4.173475 1.188473 -4.266033
v 2.467706 1.322310 -5.106547
v 4.173475 0.993091 -4.867355
v 2.467706 0.607327 -5.626012
v 4.173475 0.481576 -5.238992
v 2.467706 -0.276441 -5.626012
v 4.173475 -0.150691 -5.238992
v 2.467706 -0.991425 -5.106546
v 4.173475 -0.662206 -4.867355
v 2.467706 -1.264524 -4.266033
v 4.173475 -0.857587 -4.266033
v 2.467706 -0.991425 -3.425519
v 4.173475 -0.662206 -3.664711
v 2.467706 -0.276441 -2.906053
v 4.173475 -0.150691 -3.293074
v 2.467706 0.607327 -2.906053
v 4.173475 0.481576 -3.293074
v 2.467706 1.322311 -3.425519
v 4.173475 0.993091 -3.664711
v 4.173475 1.322310 -5.106547
v 4.173475 1.595410 -4.266033
v 4.173475 0.607327 -5.626012
v 4.173475 -0.276441 -5.626012
v 4.173475 -0.991425 -5.106546
v 4.173475 -1.264524 -4.266033
v 4.173475 -0.991425 -3.425519
v 4.173475 -0.276442 -2.906054
v 4.173475 0.607327 -2.906054
v 4.173475 1.322311 -3.425519
v 3.961782 0.761490 -4.699087
v 3.961782 0.902198 -4.266033
v 3.961782 0.393113 -4.966729
v 3.961782 -0.062227 -4.966729
v 3.961782 -0.430605 -4.699087
v 3.961782 -0.571313 -4.266033
v 3.961782 -0.430605 -3.832979
v 3.961782 -0.062227 -3.565337
v 3.961782 0.393113 -3.565337
v 3.961782 0.761490 -3.832979
v -2.467706 1.595410 -4.266033
v -4.173474 1.188473 -4.266033
v -2.467706 1.322311 -5.106546
v -4.173474 0.993091 -4.867354
v -2.467706 0.607327 -5.626012
v -4.173474 0.481576 -5.238991
v -2.467706 -0.276441 -5.626012
v -4.173474 -0.150691 -5.238991
v -2.467706 -0.991425 -5.106546
v -4.173474 -0.662206 -4.867354
v -2.467706 -1.264524 -4.266033
v -4.173474 -0.857587 -4.266033
v -2.467706 -0.991425 -3.425519
v -4.173474 -0.662206 -3.664711
v -2.467706 -0.276442 -2.906053
v -4.173474 -0.150691 -3.293074
v -2.467706 0.607327 -2.906053
v -4.173474 0.481576 -3.293074
v -2.467706 1.322311 -3.425519
v -4.173474 0.993091 -3.664711
v -4.173474 1.322310 -5.106546
v -4.173474 1.595410 -4.266033
v -4.173474 0.607327 -5.626012
v -4.173474 -0.276442 -5.626012
v -4.173474 -0.991425 -5.106546
v -4.173474 -1.264524 -4.266033
v -4.173474 -0.991425 -3.425519
v -4.173474 -0.276442 -2.906053
v -4.173474 0.607327 -2.906053
v -4.173474 1.322311 -3.425519
v -3.961781 0.761490 -4.699087
v -3.961781 0.902198 -4.266033
v -3.961781 0.393113 -4.966729
v -3.961781 -0.062227 -4.966729
v -3.961781 -0.430605 -4.699087
v -3.961781 -0.571312 -4.266033
v -3.961781 -0.430605 -3.832979
v -3.961781 -0.062227 -3.565337
v -3.961781 0.393113 -3.565337
v -3.961781 0.761490 -3.832979
vt 0.149077 0.388909
vt 0.086702 0.303059
vt 0.149077 0.388909
vt 0.149077 0.111091
vt 0.350923 0.111091
vt 0.413298 0.303059
vt 0.250000 0.078299
vt 0.149077 0.111091
vt 0.413298 0.303059
vt 0.413298 0.196941
vt 0.413298 0.196941
vt 0.250000 0.421701
vt 0.250000 0.421701
vt 0.086702 0.196941
vt 0.086702 0.196941
vt 0.350923 0.111091
vt 0.350923 0.388909
vt 0.350923 0.388909
vt 0.086702 0.303059
vt 0.250000 0.078299
vt 0.149077 0.388909
vt 0.086702 0.303059
vt 0.149077 0.388909
vt 0.350923 0.111091
vt 0.149077 0.111091
vt 0.086702 0.303059
vt 0.149077 0.111091
vt 0.250000 0.078299
vt 0.250000 0.078299
vt 0.413298 0.196941
vt 0.413298 0.303059
vt 0.413298 0.196941
vt 0.250000 0.421701
vt 0.250000 0.421701
vt 0.086702 0.196941
vt 0.086702 0.196941
vt 0.350923 0.111091
vt 0.350923 0.388909
vt 0.350923 0.388909
vt 0.086702 0.303059
vt 0.149077 0.388909
vt 0.149077 0.388909
vt 0.086702 0.303059
vt 0.350923 0.111091
vt 0.413298 0.303059
vt 0.149077 0.111091
vt 0.250000 0.078299
vt 0.149077 0.111091
vt 0.413298 0.303059
vt 0.413298 0.196941
vt 0.413298 0.196941
vt 0.250000 0.421701
vt 0.250000 0.421701
vt 0.086702 0.196941
vt 0.086702 0.196941
vt 0.350923 0.111091
vt 0.350923 0.388909
vt 0.350923 0.388909
vt 0.250000 0.078299
vt 0.149077 0.388909
vt 0.086702 0.303059
vt 0.149077 0.388909
vt 0.149077 0.111091
vt 0.086702 0.303059
vt 0.250000 0.421701
vt 0.149077 0.111091
vt 0.250000 0.078299
vt 0.250000 0.078299
vt 0.413298 0.196941
vt 0.413298 0.303059
vt 0.413298 0.196941
vt 0.250000 0.421701
vt 0.086702 0.196941
vt 0.086702 0.196941
vt 0.350923 0.111091
vt 0.350923 0.111091
vt 0.350923 0.388909
vt 0.350923 0.388909
vt 0.413298 0.303059
vt 0.413298 0.303059
vt 1.000000 1.000000
vt 0.900000 0.500000
vt 1.000000 0.500000
vt 0.900000 1.000000
vt 0.800000 0.500000
vt 0.800000 1.000000
vt 0.700000 0.500000
vt 0.600000 1.000000
vt 0.600000 0.500000
vt 0.500000 0.500000
vt 0.500000 1.000000
vt 0.400000 0.500000
vt 0.400000 1.000000
vt 0.300000 0.500000
vt 0.300000 1.000000
vt 0.200000 0.500000
vt 0.200000 1.000000
vt 0.100000 0.500000
vt 0.100000 1.000000
vt -0.000000 0.500000
vt 0.978254 0.175836
vt 0.750000 0.010000
vt 0.521746 0.175836
vt 0.391068 0.444164
vt 0.250000 0.490000
vt 0.478254 0.324164
vt 0.478254 0.175836
vt 0.391068 0.055836
vt 0.250000 0.010000
vt 0.108932 0.055836
vt 0.021746 0.175836
vt 0.108932 0.444164
vt 0.021746 0.324164
vt 1.000000 0.500000
vt 0.900000 1.000000
vt 1.000000 1.000000
vt 0.800000 0.500000
vt 0.900000 0.500000
vt 0.700000 0.500000
vt 0.800000 1.000000
vt 0.600000 0.500000
vt 0.700000 1.000000
vt 0.500000 1.000000
vt 0.600000 1.000000
vt 0.400000 0.500000
vt 0.500000 0.500000
vt 0.300000 0.500000
vt 0.400000 1.000000
vt 0.200000 0.500000
vt 0.300000 1.000000
vt 0.100000 0.500000
vt 0.200000 1.000000
vt -0.000000 0.500000
vt 0.100000 1.000000
vt 0.891068 0.444164
vt 0.608932 0.444164
vt 0.521746 0.175836
vt 0.250000 0.490000
vt 0.478254 0.324164
vt 0.478254 0.175836
vt 0.250000 0.010000
vt 0.108932 0.055836
vt 0.021746 0.175836
vt 0.108932 0.444164
vt 1.000000 1.000000
vt 0.900000 0.500000
vt 1.000000 0.500000
vt 0.900000 1.000000
vt 0.800000 0.500000
vt 0.800000 1.000000
vt 0.700000 0.500000
vt 0.700000 1.000000
vt 0.600000 0.500000
vt 0.600000 1.000000
vt 0.500000 0.500000
vt 0.500000 1.000000
vt 0.400000 0.500000
vt 0.400000 1.000000
vt 0.300000 0.500000
vt 0.300000 1.000000
vt 0.200000 0.500000
vt 0.200000 1.000000
vt 0.100000 0.500000
vt 0.100000 1.000000
vt -0.000000 0.500000
vt 0.978254 0.175836
vt 0.521746 0.175836
vt 0.608932 0.444164
vt 0.250000 0.490000
vt 0.478254 0.324164
vt 0.391068 0.444164
vt 0.478254 0.175836
vt 0.391068 0.055836
vt 0.108932 0.055836
vt 0.250000 0.010000
vt 0.021746 0.175836
vt 0.021746 0.324164
vt 0.108932 0.444164
vt 0.900000 0.500000
vt 1.000000 1.000000
vt 1.000000 0.500000
vt 0.800000 0.500000
vt 0.900000 1.000000
vt 0.700000 0.500000
vt 0.800000 1.000000
vt 0.600000 0.500000
vt 0.700000 1.000000
vt 0.500000 0.500000
vt 0.600000 1.000000
vt 0.400000 1.000000
vt 0.500000 1.000000
vt 0.300000 0.500000
vt 0.400000 0.500000
vt 0.200000 1.000000
vt 0.300000 1.000000
vt 0.200000 0.500000
vt 0.100000 1.000000
vt 0.100000 0.500000
vt -0.000000 1.000000
vt 0.750000 0.010000
vt 0.978254 0.175836
vt 0.891068 0.444164
vt 0.250000 0.490000
vt 0.391068 0.444164
vt 0.478254 0.324164
vt 0.391068 0.055836
vt 0.250000 0.010000
vt 0.021746 0.175836
vt 0.021746 0.324164
vt 0.108932 0.444164
vt 0.700000 1.000000
vt -0.000000 1.000000
vt 0.608932 0.444164
vt 0.750000 0.490000
vt 0.891068 0.444164
vt 0.978254 0.324164
vt 0.891068 0.055836
vt 0.608932 0.055836
vt 0.521746 0.324164
vt -0.000000 1.000000
vt 0.750000 0.490000
vt 0.521746 0.324164
vt 0.608932 0.055836
vt 0.750000 0.010000
vt 0.891068 0.055836
vt 0.978254 0.175836
vt 0.978254 0.324164
vt 0.391068 0.444164
vt 0.391068 0.055836
vt 0.021746 0.324164
vt -0.000000 1.000000
vt 0.750000 0.490000
vt 0.891068 0.444164
vt 0.978254 0.324164
vt 0.891068 0.055836
vt 0.750000 0.010000
vt 0.608932 0.055836
vt 0.521746 0.324164
vt -0.000000 0.500000
vt 0.750000 0.490000
vt 0.521746 0.175836
vt 0.608932 0.444164
vt 0.521746 0.324164
vt 0.608932 0.055836
vt 0.891068 0.055836
vt 0.978254 0.324164
vt 0.478254 0.175836
vt 0.108932 0.055836
vn 0.7894 -0.3608 -0.4966
vn 1.0000 -0.0000 0.0000
vn 0.7894 0.5838 -0.1897
vn 0.7894 0.0000 0.6138
vn 0.7894 -0.5838 -0.1897
vn 0.7894 0.3608 -0.4966
vn 0.7894 0.3608 0.4966
vn 0.7894 -0.5838 0.1897
vn 0.7894 -0.0000 -0.6138
vn 0.7894 0.5838 0.1897
vn 0.7894 -0.3608 0.4966
vn -0.7894 -0.3608 -0.4966
vn -1.0000 0.0000 0.0000
vn -0.7894 0.5838 -0.1897
vn -0.7894 0.0000 0.6138
vn -0.7894 -0.5838 -0.1897
vn -0.7894 0.3608 -0.4966
vn -0.7894 0.3608 0.4966
vn -0.7894 -0.5838 0.1897
vn -0.7894 0.0000 -0.6138
vn -0.7894 0.5838 0.1897
vn -0.7894 -0.3608 0.4966
vn 0.0000 0.9511 -0.3090
vn 0.0000 0.5878 -0.8090
vn 0.0000 0.0000 -1.0000
vn 0.0000 -0.5878 -0.8090
vn 0.0000 -0.9511 -0.3090
vn 0.0000 -0.9511 0.3090
vn 0.0000 -0.5878 0.8090
vn 0.0000 0.0000 1.0000
vn 0.0000 0.5878 0.8090
vn 0.0000 0.9511 0.3090
usemtl Yellow_Wheel1
s off
f 20/1/1 39/2/1 40/3/1
f 37/4/2 35/5/2 33/6/2
f 12/7/3 37/4/3 14/8/3
f 6/9/4 34/10/4 8/11/4
f 20/1/5 32/12/5 2/13/5
f 14/8/6 38/14/6 16/15/6
f 10/16/7 34/10/7 35/5/7
f 4/17/8 32/12/8 31/18/8
f 18/19/9 38/14/9 39/2/9
f 12/7/10 35/5/10 36/20/10
f 4/17/11 33/6/11 6/9/11
f 80/21/12 58/22/12 60/23/12
f 75/24/13 77/25/13 79/26/13
f 54/27/14 76/28/14 52/29/14
f 74/30/15 46/31/15 48/32/15
f 72/33/16 60/23/16 42/34/16
f 78/35/17 54/27/17 56/36/17
f 50/37/18 74/30/18 48/32/18
f 71/38/19 42/34/19 44/39/19
f 79/26/20 56/36/20 58/22/20
f 52/29/21 75/24/21 50/37/21
f 46/31/22 71/38/22 44/39/22
f 98/40/1 120/41/1 100/42/1
f 119/43/2 115/44/2 113/45/2
f 94/46/3 116/47/3 117/48/3
f 86/49/4 114/50/4 88/51/4
f 100/42/5 112/52/5 82/53/5
f 96/54/6 117/48/6 118/55/6
f 90/56/7 114/50/7 115/44/7
f 82/53/8 111/57/8 84/58/8
f 96/54/9 119/43/9 98/40/9
f 92/59/10 115/44/10 116/47/10
f 84/58/11 113/45/11 86/49/11
f 160/60/12 138/61/12 140/62/12
f 157/63/13 159/64/13 152/65/13
f 134/66/14 156/67/14 132/68/14
f 154/69/15 126/70/15 128/71/15
f 152/65/16 140/62/16 122/72/16
f 158/73/17 134/66/17 136/74/17
f 155/75/18 128/71/18 130/76/18
f 124/77/19 152/65/19 122/72/19
f 159/64/20 136/74/20 138/61/20
f 156/67/21 130/76/21 132/68/21
f 126/70/22 151/78/22 124/77/22
f 20/1/1 18/19/1 39/2/1
f 33/6/2 31/18/2 32/12/2
f 32/12/2 40/3/2 39/2/2
f 39/2/2 38/14/2 37/4/2
f 37/4/2 36/20/2 35/5/2
f 35/5/2 34/10/2 33/6/2
f 33/6/2 32/12/2 39/2/2
f 39/2/2 37/4/2 33/6/2
f 12/7/3 36/20/3 37/4/3
f 6/9/4 33/6/4 34/10/4
f 20/1/5 40/3/5 32/12/5
f 14/8/6 37/4/6 38/14/6
f 10/16/7 8/11/7 34/10/7
f 4/17/8 2/13/8 32/12/8
f 18/19/9 16/15/9 38/14/9
f 12/7/10 10/16/10 35/5/10
f 4/17/11 31/18/11 33/6/11
f 80/21/12 79/26/12 58/22/12
f 72/33/13 71/38/13 73/79/13
f 73/79/13 74/30/13 75/24/13
f 75/24/13 76/28/13 77/25/13
f 77/25/13 78/35/13 79/26/13
f 79/26/13 80/21/13 72/33/13
f 72/33/13 73/79/13 79/26/13
f 73/79/13 75/24/13 79/26/13
f 54/27/14 77/25/14 76/28/14
f 74/30/15 73/79/15 46/31/15
f 72/33/16 80/21/16 60/23/16
f 78/35/17 77/25/17 54/27/17
f 50/37/18 75/24/18 74/30/18
f 71/38/19 72/33/19 42/34/19
f 79/26/20 78/35/20 56/36/20
f 52/29/21 76/28/21 75/24/21
f 46/31/22 73/79/22 71/38/22
f 98/40/1 119/43/1 120/41/1
f 113/45/2 111/57/2 119/43/2
f 111/57/2 112/52/2 119/43/2
f 112/52/2 120/41/2 119/43/2
f 119/43/2 118/55/2 115/44/2
f 118/55/2 117/48/2 115/44/2
f 117/48/2 116/47/2 115/44/2
f 115/44/2 114/50/2 113/45/2
f 94/46/3 92/59/3 116/47/3
f 86/49/4 113/45/4 114/50/4
f 100/42/5 120/41/5 112/52/5
f 96/54/6 94/46/6 117/48/6
f 90/56/7 88/51/7 114/50/7
f 82/53/8 112/52/8 111/57/8
f 96/54/9 118/55/9 119/43/9
f 92/59/10 90/56/10 115/44/10
f 84/58/11 111/57/11 113/45/11
f 160/60/12 159/64/12 138/61/12
f 152/65/13 151/78/13 155/75/13
f 151/78/13 153/80/13 155/75/13
f 153/80/13 154/69/13 155/75/13
f 155/75/13 156/67/13 157/63/13
f 157/63/13 158/73/13 159/64/13
f 159/64/13 160/60/13 152/65/13
f 155/75/13 157/63/13 152/65/13
f 134/66/14 157/63/14 156/67/14
f 154/69/15 153/80/15 126/70/15
f 152/65/16 160/60/16 140/62/16
f 158/73/17 157/63/17 134/66/17
f 155/75/18 154/69/18 128/71/18
f 124/77/19 151/78/19 152/65/19
f 159/64/20 158/73/20 136/74/20
f 156/67/21 155/75/21 130/76/21
f 126/70/22 153/80/22 151/78/22
usemtl Black_Wheel1
f 22/81/23 3/82/23 1/83/23
f 21/84/24 5/85/24 3/82/24
f 23/86/25 7/87/25 5/85/25
f 7/87/26 25/88/26 9/89/26
f 25/88/27 11/90/27 9/89/27
f 26/91/28 13/92/28 11/90/28
f 27/93/29 15/94/29 13/92/29
f 28/95/30 17/96/30 15/94/30
f 29/97/31 19/98/31 17/96/31
f 30/99/32 1/100/32 19/98/32
f 7/101/13 11/102/13 15/103/13
f 2/13/2 21/104/2 22/105/2
f 4/17/2 23/106/2 21/104/2
f 8/11/2 23/106/2 6/9/2
f 10/16/2 24/107/2 8/11/2
f 12/7/2 25/108/2 10/16/2
f 14/8/2 26/109/2 12/7/2
f 16/15/2 27/110/2 14/8/2
f 18/19/2 28/111/2 16/15/2
f 18/19/2 30/112/2 29/113/2
f 2/13/2 30/112/2 20/1/2
f 41/114/23 61/115/23 62/116/23
f 45/117/24 61/115/24 43/118/24
f 47/119/25 63/120/25 45/117/25
f 49/121/26 64/122/26 47/119/26
f 49/121/27 66/123/27 65/124/27
f 53/125/28 66/123/28 51/126/28
f 55/127/29 67/128/29 53/125/29
f 57/129/30 68/130/30 55/127/30
f 59/131/31 69/132/31 57/129/31
f 41/133/32 70/134/32 59/131/32
f 43/135/2 59/136/2 55/137/2
f 62/138/13 44/39/13 42/34/13
f 44/39/13 63/139/13 46/31/13
f 63/139/13 48/32/13 46/31/13
f 64/140/13 50/37/13 48/32/13
f 50/37/13 66/141/13 52/29/13
f 66/141/13 54/27/13 52/29/13
f 67/142/13 56/36/13 54/27/13
f 68/143/13 58/22/13 56/36/13
f 58/22/13 70/144/13 60/23/13
f 70/144/13 42/34/13 60/23/13
f 102/145/23 83/146/23 81/147/23
f 101/148/24 85/149/24 83/146/24
f 103/150/25 87/151/25 85/149/25
f 104/152/26 89/153/26 87/151/26
f 105/154/27 91/155/27 89/153/27
f 106/156/28 93/157/28 91/155/28
f 107/158/29 95/159/29 93/157/29
f 108/160/30 97/161/30 95/159/30
f 109/162/31 99/163/31 97/161/31
f 110/164/32 81/165/32 99/163/32
f 87/166/13 95/167/13 99/168/13
f 84/58/2 102/169/2 82/53/2
f 84/58/2 103/170/2 101/171/2
f 88/51/2 103/170/2 86/49/2
f 90/56/2 104/172/2 88/51/2
f 92/59/2 105/173/2 90/56/2
f 92/59/2 107/174/2 106/175/2
f 96/54/2 107/174/2 94/46/2
f 98/40/2 108/176/2 96/54/2
f 100/42/2 109/177/2 98/40/2
f 82/53/2 110/178/2 100/42/2
f 123/179/23 142/180/23 121/181/23
f 125/182/24 141/183/24 123/179/24
f 127/184/25 143/185/25 125/182/25
f 129/186/26 144/187/26 127/184/26
f 131/188/27 145/189/27 129/186/27
f 131/188/28 147/190/28 146/191/28
f 135/192/29 147/190/29 133/193/29
f 135/192/30 149/194/30 148/195/30
f 137/196/31 150/197/31 149/194/31
f 139/198/32 142/199/32 150/197/32
f 131/200/2 127/201/2 123/202/2
f 142/203/13 124/77/13 122/72/13
f 141/204/13 126/70/13 124/77/13
f 143/205/13 128/71/13 126/70/13
f 128/71/13 145/206/13 130/76/13
f 145/206/13 132/68/13 130/76/13
f 146/207/13 134/66/13 132/68/13
f 134/66/13 148/208/13 136/74/13
f 148/208/13 138/61/13 136/74/13
f 149/209/13 140/62/13 138/61/13
f 150/210/13 122/72/13 140/62/13
f 22/81/23 21/84/23 3/82/23
f 21/84/24 23/86/24 5/85/24
f 23/86/25 24/211/25 7/87/25
f 7/87/26 24/211/26 25/88/26
f 25/88/27 26/91/27 11/90/27
f 26/91/28 27/93/28 13/92/28
f 27/93/29 28/95/29 15/94/29
f 28/95/30 29/97/30 17/96/30
f 29/97/31 30/99/31 19/98/31
f 30/99/32 22/212/32 1/100/32
f 19/213/13 1/214/13 3/215/13
f 3/215/13 5/216/13 7/101/13
f 7/101/13 9/217/13 11/102/13
f 11/102/13 13/218/13 15/103/13
f 15/103/13 17/219/13 19/213/13
f 19/213/13 3/215/13 15/103/13
f 3/215/13 7/101/13 15/103/13
f 2/13/2 4/17/2 21/104/2
f 4/17/2 6/9/2 23/106/2
f 8/11/2 24/107/2 23/106/2
f 10/16/2 25/108/2 24/107/2
f 12/7/2 26/109/2 25/108/2
f 14/8/2 27/110/2 26/109/2
f 16/15/2 28/111/2 27/110/2
f 18/19/2 29/113/2 28/111/2
f 18/19/2 20/1/2 30/112/2
f 2/13/2 22/105/2 30/112/2
f 41/114/23 43/118/23 61/115/23
f 45/117/24 63/120/24 61/115/24
f 47/119/25 64/122/25 63/120/25
f 49/121/26 65/124/26 64/122/26
f 49/121/27 51/126/27 66/123/27
f 53/125/28 67/128/28 66/123/28
f 55/127/29 68/130/29 67/128/29
f 57/129/30 69/132/30 68/130/30
f 59/131/31 70/134/31 69/132/31
f 41/133/32 62/220/32 70/134/32
f 43/135/2 41/221/2 59/136/2
f 59/136/2 57/222/2 55/137/2
f 55/137/2 53/223/2 51/224/2
f 51/224/2 49/225/2 55/137/2
f 49/225/2 47/226/2 55/137/2
f 47/226/2 45/227/2 55/137/2
f 45/227/2 43/135/2 55/137/2
f 62/138/13 61/228/13 44/39/13
f 44/39/13 61/228/13 63/139/13
f 63/139/13 64/140/13 48/32/13
f 64/140/13 65/229/13 50/37/13
f 50/37/13 65/229/13 66/141/13
f 66/141/13 67/142/13 54/27/13
f 67/142/13 68/143/13 56/36/13
f 68/143/13 69/230/13 58/22/13
f 58/22/13 69/230/13 70/144/13
f 70/144/13 62/138/13 42/34/13
f 102/145/23 101/148/23 83/146/23
f 101/148/24 103/150/24 85/149/24
f 103/150/25 104/152/25 87/151/25
f 104/152/26 105/154/26 89/153/26
f 105/154/27 106/156/27 91/155/27
f 106/156/28 107/158/28 93/157/28
f 107/158/29 108/160/29 95/159/29
f 108/160/30 109/162/30 97/161/30
f 109/162/31 110/164/31 99/163/31
f 110/164/32 102/231/32 81/165/32
f 99/168/13 81/232/13 83/233/13
f 83/233/13 85/234/13 99/168/13
f 85/234/13 87/166/13 99/168/13
f 87/166/13 89/235/13 91/236/13
f 91/236/13 93/237/13 95/167/13
f 95/167/13 97/238/13 99/168/13
f 87/166/13 91/236/13 95/167/13
f 84/58/2 101/171/2 102/169/2
f 84/58/2 86/49/2 103/170/2
f 88/51/2 104/172/2 103/170/2
f 90/56/2 105/173/2 104/172/2
f 92/59/2 106/175/2 105/173/2
f 92/59/2 94/46/2 107/174/2
f 96/54/2 108/176/2 107/174/2
f 98/40/2 109/177/2 108/176/2
f 100/42/2 110/178/2 109/177/2
f 82/53/2 102/169/2 110/178/2
f 123/179/23 141/183/23 142/180/23
f 125/182/24 143/185/24 141/183/24
f 127/184/25 144/187/25 143/185/25
f 129/186/26 145/189/26 144/187/26
f 131/188/27 146/191/27 145/189/27
f 131/188/28 133/193/28 147/190/28
f 135/192/29 148/195/29 147/190/29
f 135/192/30 137/196/30 149/194/30
f 137/196/31 139/198/31 150/197/31
f 139/198/32 121/239/32 142/199/32
f 123/202/2 121/240/2 135/241/2
f 121/240/2 139/242/2 135/241/2
f 139/242/2 137/243/2 135/241/2
f 135/241/2 133/244/2 131/200/2
f 131/200/2 129/245/2 127/201/2
f 127/201/2 125/246/2 123/202/2
f 135/241/2 131/200/2 123/202/2
f 142/203/13 141/204/13 124/77/13
f 141/204/13 143/205/13 126/70/13
f 143/205/13 144/247/13 128/71/13
f 128/71/13 144/247/13 145/206/13
f 145/206/13 146/207/13 132/68/13
f 146/207/13 147/248/13 134/66/13
f 134/66/13 147/248/13 148/208/13
f 148/208/13 149/209/13 138/61/13
f 149/209/13 150/210/13 140/62/13
f 150/210/13 142/203/13 122/72/13
