# Blender v2.90.0 OBJ File: 'WingsKart5.blend'
# www.blender.org
mtllib WingsKart5.mtl
o WingsKart5_Cube.015
v -0.767961 -0.802520 -0.099482
v -0.767961 -0.116974 -0.211196
v -0.767961 -0.802520 -0.425624
v -0.767961 -0.086667 -0.303873
v -0.546220 -0.802520 -0.099482
v -0.546220 -0.116974 -0.211196
v -0.546220 -0.802520 -0.425624
v -0.546220 -0.086667 -0.303873
v -0.767961 -0.855455 -0.484476
v -0.767961 -0.855455 -0.040630
v -0.767961 -0.092019 -0.179005
v -0.767961 -0.017725 -0.321649
v -0.546220 -0.017725 -0.321649
v -0.546220 -0.855455 -0.484476
v -0.546220 -0.855455 -0.040630
v -0.546220 -0.092019 -0.179005
v 0.767961 -0.802520 -0.099482
v 0.767961 -0.116974 -0.211196
v 0.767961 -0.802520 -0.425624
v 0.767961 -0.086667 -0.303873
v 0.546220 -0.802520 -0.099482
v 0.546220 -0.116974 -0.211196
v 0.546220 -0.802520 -0.425624
v 0.546220 -0.086667 -0.303873
v 0.767961 -0.855455 -0.484476
v 0.767961 -0.855455 -0.040630
v 0.767961 -0.092019 -0.179005
v 0.767961 -0.017725 -0.321649
v 0.546220 -0.017725 -0.321649
v 0.546220 -0.855455 -0.484476
v 0.546220 -0.855455 -0.040630
v 0.546220 -0.092019 -0.179005
v 2.373101 -0.309070 0.805545
v 2.373101 -0.112421 0.805545
v 2.373101 0.331907 -0.388926
v 2.373101 0.528555 -0.388926
v 0.791034 0.528555 -0.891282
v 1.582068 0.528555 -0.674635
v 0.791034 -0.309070 0.303188
v 1.582068 -0.309070 0.519835
v 1.582068 0.331907 -0.674635
v 0.791034 0.331907 -0.891282
v 1.582068 -0.112421 0.519835
v 0.791034 -0.112421 0.303188
v -2.373101 -0.309070 0.805545
v -2.373101 -0.112421 0.805545
v -2.373101 0.331907 -0.388926
v -2.373101 0.528555 -0.388926
v 0.000000 0.331907 -0.998056
v 0.000000 0.528555 -0.998056
v 0.000000 -0.309070 0.196415
v 0.000000 -0.112421 0.196415
v -0.791034 0.528555 -0.891282
v -1.582068 0.528555 -0.674635
v -0.791034 -0.309070 0.303188
v -1.582068 -0.309070 0.519835
v -1.582067 0.331907 -0.674635
v -0.791034 0.331907 -0.891282
v -1.582067 -0.112421 0.519835
v -0.791034 -0.112421 0.303188
v 2.272612 0.739604 0.802826
v 2.295466 0.828915 0.892138
v 2.272612 -0.520118 -0.456896
v 2.295466 -0.609430 -0.546207
v 2.473591 0.739604 0.802826
v 2.450737 0.828915 0.892138
v 2.473591 -0.520118 -0.456896
v 2.450737 -0.609430 -0.546207
v 2.272612 -0.520118 0.399129
v 2.295466 -0.609430 0.410887
v 2.272612 -0.116421 0.802826
v 2.295466 -0.128179 0.892138
v 2.272612 -0.464880 0.605281
v 2.295466 -0.544954 0.651512
v 2.272612 -0.322573 0.747588
v 2.295466 -0.368804 0.827662
v 2.473591 -0.116421 0.802826
v 2.450737 -0.128179 0.892138
v 2.473591 -0.520118 0.399129
v 2.450737 -0.609430 0.410887
v 2.473591 -0.322573 0.747588
v 2.450737 -0.368804 0.827662
v 2.473591 -0.464880 0.605281
v 2.450737 -0.544954 0.651512
v 2.272612 0.739604 -0.257081
v 2.295466 0.828915 -0.268839
v 2.272612 0.539790 -0.456896
v 2.295466 0.551548 -0.546207
v 2.272612 0.711681 -0.361292
v 2.295466 0.791755 -0.407523
v 2.272612 0.644001 -0.428972
v 2.295466 0.690232 -0.509047
v 2.473591 0.539790 -0.456896
v 2.450737 0.551548 -0.546207
v 2.473591 0.739604 -0.257081
v 2.450737 0.828915 -0.268839
v 2.473591 0.644001 -0.428972
v 2.450737 0.690232 -0.509047
v 2.473591 0.711681 -0.361292
v 2.450737 0.791755 -0.407523
v -2.272612 0.739604 0.802826
v -2.295465 0.828915 0.892138
v -2.272612 -0.520118 -0.456896
v -2.295465 -0.609430 -0.546207
v -2.473591 0.739604 0.802826
v -2.450737 0.828915 0.892138
v -2.473591 -0.520118 -0.456896
v -2.450737 -0.609430 -0.546207
v -2.272612 -0.520118 0.399129
v -2.295465 -0.609430 0.410887
v -2.272612 -0.116421 0.802826
v -2.295465 -0.128179 0.892138
v -2.272612 -0.464880 0.605281
v -2.295465 -0.544954 0.651512
v -2.272612 -0.322573 0.747588
v -2.295465 -0.368804 0.827662
v -2.473591 -0.116421 0.802826
v -2.450737 -0.128179 0.892138
v -2.473591 -0.520118 0.399129
v -2.450737 -0.609430 0.410887
v -2.473591 -0.322573 0.747588
v -2.450737 -0.368804 0.827662
v -2.473591 -0.464880 0.605281
v -2.450737 -0.544954 0.651512
v -2.272612 0.739604 -0.257081
v -2.295465 0.828915 -0.268839
v -2.272612 0.539790 -0.456896
v -2.295465 0.551548 -0.546207
v -2.272612 0.711681 -0.361292
v -2.295465 0.791755 -0.407523
v -2.272612 0.644001 -0.428972
v -2.295465 0.690232 -0.509047
v -2.473591 0.539790 -0.456896
v -2.450737 0.551548 -0.546207
v -2.473591 0.739604 -0.257081
v -2.450737 0.828915 -0.268839
v -2.473591 0.644001 -0.428972
v -2.450737 0.690232 -0.509047
v -2.473591 0.711681 -0.361292
v -2.450737 0.791755 -0.407523
vt 0.615071 0.673972
vt 0.615071 0.173972
vt 0.615071 0.576028
vt 0.625000 0.250000
vt 0.375000 0.500000
vt 0.375000 0.250000
vt 0.384929 0.218221
vt 0.384929 0.531779
vt 0.625000 0.750000
vt 0.375000 1.000000
vt 0.375000 0.750000
vt 0.125000 0.750000
vt 0.125000 0.500000
vt 0.875000 0.500000
vt 0.625000 0.500000
vt 0.375000 0.000000
vt 0.384929 0.031779
vt 0.625000 0.000000
vt 0.615071 0.076028
vt 0.384929 0.718221
vt 0.615071 0.173972
vt 0.615071 0.673972
vt 0.615071 0.576028
vt 0.375000 0.500000
vt 0.625000 0.250000
vt 0.375000 0.250000
vt 0.384929 0.218221
vt 0.384929 0.531779
vt 0.375000 1.000000
vt 0.625000 0.750000
vt 0.375000 0.750000
vt 0.125000 0.750000
vt 0.125000 0.500000
vt 0.875000 0.500000
vt 0.625000 0.500000
vt 0.375000 0.000000
vt 0.384929 0.031779
vt 0.625000 0.000000
vt 0.615071 0.076028
vt 0.384929 0.718221
vt 0.625000 1.000000
vt 0.875000 0.750000
vt 0.625000 1.000000
vt 0.875000 0.750000
vt 0.625000 0.458333
vt 0.375000 0.500000
vt 0.375000 0.458333
vt 0.625000 0.750000
vt 0.375000 0.750000
vt 0.333333 0.750000
vt 0.333333 0.500000
vt 0.708333 0.500000
vt 0.750000 0.750000
vt 0.708333 0.750000
vt 0.625000 0.833333
vt 0.375000 0.875000
vt 0.375000 0.833333
vt 0.375000 0.791667
vt 0.625000 0.791667
vt 0.625000 0.500000
vt 0.666667 0.750000
vt 0.666667 0.500000
vt 0.291667 0.500000
vt 0.250000 0.750000
vt 0.250000 0.500000
vt 0.291667 0.750000
vt 0.625000 0.375000
vt 0.375000 0.416667
vt 0.375000 0.375000
vt 0.625000 0.416667
vt 0.375000 0.500000
vt 0.625000 0.458333
vt 0.375000 0.458333
vt 0.625000 0.750000
vt 0.625000 0.500000
vt 0.333333 0.750000
vt 0.333333 0.500000
vt 0.708333 0.500000
vt 0.750000 0.500000
vt 0.625000 0.833333
vt 0.375000 0.833333
vt 0.375000 0.791667
vt 0.375000 0.750000
vt 0.625000 0.791667
vt 0.666667 0.750000
vt 0.666667 0.500000
vt 0.708333 0.750000
vt 0.291667 0.500000
vt 0.291667 0.750000
vt 0.375000 0.416667
vt 0.625000 0.416667
vt 0.625000 0.875000
vt 0.574747 0.234477
vt 0.460690 0.015523
vt 0.609477 0.199747
vt 0.346572 0.666353
vt 0.153428 0.708177
vt 0.153428 0.666353
vt 0.609477 0.550253
vt 0.460690 0.734477
vt 0.390523 0.664310
vt 0.346572 0.500000
vt 0.153428 0.500000
vt 0.416823 0.778428
vt 0.458647 0.971572
vt 0.416823 0.971572
vt 0.653428 0.548210
vt 0.846572 0.524105
vt 0.846572 0.548210
vt 0.346572 0.708177
vt 0.153428 0.750000
vt 0.576790 0.278428
vt 0.375000 0.471572
vt 0.375000 0.278428
vt 0.600895 0.471572
vt 0.600895 0.278428
vt 0.625000 0.471572
vt 0.625000 0.278428
vt 0.625000 0.778428
vt 0.458647 0.778428
vt 0.400124 0.049859
vt 0.375000 0.083647
vt 0.386207 0.041823
vt 0.400124 0.700141
vt 0.375000 0.666353
vt 0.416823 0.011207
vt 0.424859 0.025124
vt 0.424859 0.724876
vt 0.386207 0.708177
vt 0.458647 0.000000
vt 0.458647 0.750000
vt 0.416823 0.738793
vt 0.390523 0.234477
vt 0.390523 0.085690
vt 0.390523 0.515523
vt 0.609477 0.015523
vt 0.609477 0.734477
vt 0.604623 0.217860
vt 0.625000 0.201790
vt 0.618541 0.225895
vt 0.604623 0.532140
vt 0.625000 0.548210
vt 0.592860 0.229623
vt 0.600895 0.243541
vt 0.592860 0.520377
vt 0.618541 0.524105
vt 0.576790 0.250000
vt 0.576790 0.500000
vt 0.600895 0.506459
vt 0.653428 0.750000
vt 0.576790 0.471572
vt 0.574747 0.515523
vt 0.460690 0.015523
vt 0.424859 0.025124
vt 0.400124 0.049859
vt 0.153428 0.708177
vt 0.346572 0.666353
vt 0.153428 0.666353
vt 0.574747 0.515523
vt 0.390523 0.664310
vt 0.460690 0.734477
vt 0.346572 0.500000
vt 0.153428 0.500000
vt 0.458647 0.971572
vt 0.416823 0.778428
vt 0.416823 0.971572
vt 0.846572 0.524105
vt 0.653428 0.548210
vt 0.846572 0.548210
vt 0.153428 0.750000
vt 0.346572 0.708177
vt 0.375000 0.471572
vt 0.576790 0.278428
vt 0.375000 0.278428
vt 0.600895 0.471572
vt 0.600895 0.278428
vt 0.625000 0.471572
vt 0.625000 0.278428
vt 0.625000 0.778428
vt 0.458647 0.778428
vt 0.375000 0.083647
vt 0.390523 0.085690
vt 0.375000 0.666353
vt 0.400124 0.700141
vt 0.386207 0.041823
vt 0.386207 0.708177
vt 0.424859 0.724876
vt 0.458647 0.000000
vt 0.458647 0.750000
vt 0.390523 0.234477
vt 0.390523 0.515523
vt 0.609477 0.015523
vt 0.625000 0.000000
vt 0.609477 0.734477
vt 0.604623 0.217860
vt 0.625000 0.201790
vt 0.609477 0.199747
vt 0.625000 0.548210
vt 0.604623 0.532140
vt 0.609477 0.550253
vt 0.600895 0.243541
vt 0.592860 0.229623
vt 0.600895 0.506459
vt 0.592860 0.520377
vt 0.576790 0.250000
vt 0.574747 0.234477
vt 0.576790 0.500000
vt 0.576790 0.471572
vt 0.653428 0.750000
vt 0.653428 0.524105
vt 0.346572 0.750000
vt 0.625000 0.971572
vt 0.375000 0.250000
vt 0.625000 0.000000
vt 0.846572 0.750000
vt 0.653428 0.524105
vt 0.346572 0.750000
vt 0.625000 0.971572
vt 0.416823 0.011207
vt 0.416823 0.738793
vt 0.375000 0.250000
vt 0.618541 0.225895
vt 0.618541 0.524105
vt 0.846572 0.750000
vn 0.0000 -0.9505 -0.3108
vn 0.0000 0.1908 -0.9816
vn 0.0000 -0.1677 0.9858
vn 0.0000 0.1783 0.9840
vn 0.0000 -1.0000 0.0000
vn 0.0000 0.8869 0.4619
vn -1.0000 0.0000 0.0000
vn 1.0000 0.0000 0.0000
vn 0.0000 -0.1608 -0.9870
vn 0.0000 1.0000 0.0000
vn 0.3397 0.0000 -0.9405
vn 0.1683 -0.8686 -0.4661
vn -0.0637 0.8794 0.4719
vn -0.1338 -0.0000 0.9910
vn -0.3397 0.0000 0.9405
vn -0.2642 0.0000 0.9645
vn -0.1683 0.8686 0.4661
vn -0.1284 0.8739 0.4689
vn 0.0637 -0.8794 -0.4719
vn 0.1284 -0.8739 -0.4689
vn 0.1338 0.0000 -0.9910
vn 0.2641 0.0000 -0.9645
vn -0.3397 -0.0000 -0.9405
vn -0.1683 -0.8686 -0.4661
vn 0.0637 0.8794 0.4719
vn 0.1338 -0.0000 0.9910
vn 0.3397 0.0000 0.9405
vn 0.2642 0.0000 0.9645
vn 0.1683 0.8686 0.4661
vn 0.1284 0.8739 0.4689
vn -0.0637 -0.8794 -0.4719
vn -0.1284 -0.8739 -0.4689
vn -0.1338 0.0000 -0.9910
vn -0.2641 0.0000 -0.9645
vn -0.2641 0.0000 0.9645
vn 0.2642 0.0000 -0.9645
vn 0.2641 0.0000 0.9645
vn -0.2642 0.0000 -0.9645
vn 0.0000 -0.9659 0.2588
vn 0.0000 -0.2588 0.9659
vn 0.0000 0.9659 -0.2588
vn 0.0000 -0.7071 0.7071
vn 0.0000 0.0000 -1.0000
vn 0.0000 0.2588 -0.9659
vn 0.0000 0.7071 -0.7071
vn 0.0000 0.0000 1.0000
vn -0.9688 -0.2395 0.0642
vn 0.9688 -0.2394 0.0642
vn -0.9688 -0.1753 0.1753
vn 0.9688 -0.1753 0.1753
vn -0.9688 -0.0642 0.2395
vn 0.9688 -0.0642 0.2395
vn -0.9688 -0.2479 0.0000
vn 0.9688 -0.2479 0.0000
vn -0.9688 0.0000 0.2479
vn 0.9688 0.0000 0.2479
vn -0.9688 0.2395 -0.0642
vn 0.9688 0.2394 -0.0642
vn -0.9688 0.1753 -0.1753
vn 0.9688 0.1753 -0.1753
vn -0.9688 0.0642 -0.2395
vn 0.9688 0.0642 -0.2395
vn 0.9688 0.2479 0.0000
vn -0.9688 0.2479 0.0000
vn -0.9688 0.0000 -0.2479
vn 0.9688 0.0000 -0.2479
vn 0.9688 -0.2395 0.0642
vn 0.9688 -0.0642 0.2394
vn 0.9688 0.0642 -0.2394
vn 0.9688 0.2395 -0.0642
usemtl White_WingsKart5
s off
f 6/1/1 4/2/1 8/3/1
f 12/4/2 14/5/2 9/6/2
f 8/3/3 3/7/3 7/8/3
f 16/9/4 10/10/4 15/11/4
f 14/5/5 10/12/5 9/13/5
f 12/14/6 16/9/6 13/15/6
f 3/7/7 10/16/7 1/17/7
f 1/17/7 11/18/7 2/19/7
f 4/2/7 11/18/7 12/4/7
f 4/2/7 9/6/7 3/7/7
f 8/3/8 14/5/8 13/15/8
f 5/20/8 14/5/8 7/8/8
f 8/3/8 16/9/8 6/1/8
f 5/20/8 16/9/8 15/11/8
f 5/20/9 2/19/9 6/1/9
f 7/8/10 1/17/10 5/20/10
f 20/21/1 22/22/1 24/23/1
f 30/24/2 28/25/2 25/26/2
f 19/27/3 24/23/3 23/28/3
f 26/29/4 32/30/4 31/31/4
f 26/32/5 30/24/5 25/33/5
f 32/30/6 28/34/6 29/35/6
f 26/36/8 19/27/8 17/37/8
f 27/38/8 17/37/8 18/39/8
f 20/21/8 27/38/8 18/39/8
f 25/26/8 20/21/8 19/27/8
f 24/23/7 30/24/7 23/28/7
f 30/24/7 21/40/7 23/28/7
f 32/30/7 24/23/7 22/22/7
f 21/40/7 32/30/7 22/22/7
f 18/39/9 21/40/9 22/22/9
f 21/40/10 19/27/10 23/28/10
f 6/1/1 2/19/1 4/2/1
f 12/4/2 13/15/2 14/5/2
f 8/3/3 4/2/3 3/7/3
f 16/9/4 11/41/4 10/10/4
f 14/5/5 15/11/5 10/12/5
f 12/14/6 11/42/6 16/9/6
f 3/7/7 9/6/7 10/16/7
f 1/17/7 10/16/7 11/18/7
f 4/2/7 2/19/7 11/18/7
f 4/2/7 12/4/7 9/6/7
f 8/3/8 7/8/8 14/5/8
f 5/20/8 15/11/8 14/5/8
f 8/3/8 13/15/8 16/9/8
f 5/20/8 6/1/8 16/9/8
f 5/20/9 1/17/9 2/19/9
f 7/8/10 3/7/10 1/17/10
f 20/21/1 18/39/1 22/22/1
f 30/24/2 29/35/2 28/25/2
f 19/27/3 20/21/3 24/23/3
f 26/29/4 27/43/4 32/30/4
f 26/32/5 31/31/5 30/24/5
f 32/30/6 27/44/6 28/34/6
f 26/36/8 25/26/8 19/27/8
f 27/38/8 26/36/8 17/37/8
f 20/21/8 28/25/8 27/38/8
f 25/26/8 28/25/8 20/21/8
f 24/23/7 29/35/7 30/24/7
f 30/24/7 31/31/7 21/40/7
f 32/30/7 29/35/7 24/23/7
f 21/40/7 31/31/7 32/30/7
f 18/39/9 17/37/9 21/40/9
f 21/40/10 17/37/10 19/27/10
usemtl Yellow_WingsKart5
f 38/45/11 35/46/11 41/47/11
f 35/46/8 34/48/8 33/49/8
f 35/46/12 40/50/12 41/51/12
f 37/52/13 52/53/13 44/54/13
f 44/55/14 51/56/14 39/57/14
f 34/48/15 40/58/15 33/49/15
f 43/59/16 39/57/16 40/58/16
f 36/60/17 43/61/17 34/48/17
f 38/62/18 44/54/18 43/61/18
f 42/63/19 51/64/19 49/65/19
f 41/51/20 39/66/20 42/63/20
f 50/67/21 42/68/21 49/69/21
f 37/70/22 41/47/22 42/68/22
f 47/71/23 54/72/23 57/73/23
f 47/71/7 46/74/7 48/75/7
f 56/76/24 47/71/24 57/77/24
f 53/78/25 52/53/25 50/79/25
f 51/56/26 60/80/26 55/81/26
f 56/82/27 46/74/27 45/83/27
f 55/81/28 59/84/28 56/82/28
f 48/75/29 59/85/29 54/86/29
f 54/86/30 60/87/30 53/78/30
f 51/64/31 58/88/31 49/65/31
f 55/89/32 57/77/32 58/88/32
f 58/90/33 50/67/33 49/69/33
f 57/73/34 53/91/34 58/90/34
f 38/45/11 36/60/11 35/46/11
f 35/46/8 36/60/8 34/48/8
f 35/46/12 33/49/12 40/50/12
f 37/52/13 50/79/13 52/53/13
f 44/55/14 52/92/14 51/56/14
f 34/48/15 43/59/15 40/58/15
f 43/59/35 44/55/35 39/57/35
f 36/60/17 38/62/17 43/61/17
f 38/62/18 37/52/18 44/54/18
f 42/63/19 39/66/19 51/64/19
f 41/51/20 40/50/20 39/66/20
f 50/67/21 37/70/21 42/68/21
f 37/70/36 38/45/36 41/47/36
f 47/71/23 48/75/23 54/72/23
f 47/71/7 45/83/7 46/74/7
f 56/76/24 45/83/24 47/71/24
f 53/78/25 60/87/25 52/53/25
f 51/56/26 52/92/26 60/80/26
f 56/82/27 59/84/27 46/74/27
f 55/81/37 60/80/37 59/84/37
f 48/75/29 46/74/29 59/85/29
f 54/86/30 59/85/30 60/87/30
f 51/64/31 55/89/31 58/88/31
f 55/89/32 56/76/32 57/77/32
f 58/90/33 53/91/33 50/67/33
f 57/73/38 54/72/38 53/91/38
usemtl Red_WingsKart5
f 87/93/7 71/94/7 85/95/7
f 80/96/39 74/97/39 70/98/39
f 95/99/8 77/100/8 79/101/8
f 68/102/5 70/98/5 64/103/5
f 82/104/40 72/105/40 76/106/40
f 96/107/41 90/108/41 86/109/41
f 84/110/42 76/111/42 74/97/42
f 88/112/43 68/113/43 64/114/43
f 98/115/44 88/112/44 92/116/44
f 100/117/45 92/116/45 90/118/45
f 66/119/46 72/105/46 78/120/46
f 73/121/47 70/122/47 74/123/47
f 83/124/48 80/125/48 79/101/48
f 73/121/49 76/126/49 75/127/49
f 81/128/50 84/129/50 83/124/50
f 75/127/51 72/130/51 71/94/51
f 81/128/52 78/131/52 82/132/52
f 63/133/53 70/122/53 69/134/53
f 67/135/54 80/96/54 68/102/54
f 72/130/55 61/136/55 71/94/55
f 65/137/56 78/120/56 77/100/56
f 89/138/57 86/139/57 90/140/57
f 99/141/58 96/142/58 95/99/58
f 91/143/59 90/140/59 92/144/59
f 97/145/60 100/146/60 99/141/60
f 91/143/61 88/147/61 87/93/61
f 97/145/62 94/148/62 98/149/62
f 65/137/63 96/107/63 66/150/63
f 61/136/64 86/139/64 85/95/64
f 88/112/65 63/133/65 87/93/65
f 67/135/66 94/151/66 93/152/66
f 86/109/10 66/150/10 96/107/10
f 111/153/8 115/154/8 113/155/8
f 114/156/39 120/157/39 110/158/39
f 133/159/7 119/160/7 117/161/7
f 110/158/5 108/162/5 104/163/5
f 112/164/40 122/165/40 116/166/40
f 130/167/41 136/168/41 126/169/41
f 116/170/42 124/171/42 114/156/42
f 108/172/43 128/173/43 104/174/43
f 128/173/44 138/175/44 132/176/44
f 132/176/45 140/177/45 130/178/45
f 112/164/46 106/179/46 118/180/46
f 113/155/67 110/181/67 109/182/67
f 120/183/47 123/184/47 119/160/47
f 115/154/50 114/185/50 113/155/50
f 124/186/49 121/187/49 123/184/49
f 112/188/68 115/154/68 111/153/68
f 121/187/51 118/189/51 117/161/51
f 110/181/54 103/190/54 109/182/54
f 107/191/53 120/157/53 119/160/53
f 112/188/56 101/192/56 102/193/56
f 118/180/55 105/194/55 117/161/55
f 129/195/58 126/196/58 125/197/58
f 136/198/57 139/199/57 135/200/57
f 132/201/60 129/195/60 131/202/60
f 139/199/59 138/203/59 137/204/59
f 128/205/69 131/202/69 127/206/69
f 137/204/61 134/207/61 133/159/61
f 105/194/64 136/168/64 135/200/64
f 126/196/63 101/192/63 125/197/63
f 128/173/66 103/190/66 104/174/66
f 134/208/65 107/191/65 133/159/65
f 106/209/10 126/169/10 136/168/10
f 63/133/7 69/134/7 87/93/7
f 69/134/7 73/121/7 71/94/7
f 73/121/7 75/127/7 71/94/7
f 71/94/7 61/136/7 85/95/7
f 85/95/7 89/138/7 91/143/7
f 91/143/7 87/93/7 85/95/7
f 69/134/7 71/94/7 87/93/7
f 80/96/39 84/110/39 74/97/39
f 79/101/8 67/135/8 93/152/8
f 93/152/8 97/145/8 99/141/8
f 99/141/8 95/99/8 93/152/8
f 95/99/8 65/137/8 77/100/8
f 77/100/8 81/128/8 79/101/8
f 95/99/8 79/101/8 93/152/8
f 81/128/8 83/124/8 79/101/8
f 68/102/5 80/96/5 70/98/5
f 82/104/40 78/120/40 72/105/40
f 96/107/41 100/210/41 90/108/41
f 84/110/42 82/211/42 76/111/42
f 88/112/43 94/151/43 68/113/43
f 98/115/44 94/151/44 88/112/44
f 100/117/45 98/115/45 92/116/45
f 66/119/46 62/212/46 72/105/46
f 73/121/47 69/134/47 70/122/47
f 83/124/67 84/129/67 80/125/67
f 73/121/49 74/123/49 76/126/49
f 81/128/50 82/132/50 84/129/50
f 75/127/51 76/126/51 72/130/51
f 81/128/52 77/100/52 78/131/52
f 63/133/53 64/213/53 70/122/53
f 67/135/54 79/101/54 80/96/54
f 72/130/55 62/214/55 61/136/55
f 65/137/56 66/119/56 78/120/56
f 89/138/57 85/95/57 86/139/57
f 99/141/70 100/146/70 96/142/70
f 91/143/59 89/138/59 90/140/59
f 97/145/60 98/149/60 100/146/60
f 91/143/61 92/144/61 88/147/61
f 97/145/62 93/152/62 94/148/62
f 65/137/63 95/99/63 96/107/63
f 61/136/64 62/214/64 86/139/64
f 88/112/65 64/114/65 63/133/65
f 67/135/66 68/113/66 94/151/66
f 86/109/10 62/215/10 66/150/10
f 113/155/8 109/182/8 111/153/8
f 109/182/8 103/190/8 127/206/8
f 111/153/8 127/206/8 125/197/8
f 127/206/8 131/202/8 125/197/8
f 109/182/8 127/206/8 111/153/8
f 131/202/8 129/195/8 125/197/8
f 125/197/8 101/192/8 111/153/8
f 114/156/39 124/171/39 120/157/39
f 133/159/7 107/191/7 119/160/7
f 119/160/7 123/184/7 121/187/7
f 121/187/7 117/161/7 119/160/7
f 117/161/7 105/194/7 135/200/7
f 133/159/7 135/200/7 139/199/7
f 117/161/7 135/200/7 133/159/7
f 139/199/7 137/204/7 133/159/7
f 110/158/5 120/157/5 108/162/5
f 112/164/40 118/180/40 122/165/40
f 130/167/41 140/216/41 136/168/41
f 116/170/42 122/217/42 124/171/42
f 108/172/43 134/208/43 128/173/43
f 128/173/44 134/208/44 138/175/44
f 132/176/45 138/175/45 140/177/45
f 112/164/46 102/218/46 106/179/46
f 113/155/48 114/185/48 110/181/48
f 120/183/47 124/186/47 123/184/47
f 115/154/50 116/219/50 114/185/50
f 124/186/49 122/220/49 121/187/49
f 112/188/68 116/219/68 115/154/68
f 121/187/51 122/220/51 118/189/51
f 110/181/54 104/221/54 103/190/54
f 107/191/53 108/162/53 120/157/53
f 112/188/56 111/153/56 101/192/56
f 118/180/55 106/179/55 105/194/55
f 129/195/58 130/222/58 126/196/58
f 136/198/57 140/223/57 139/199/57
f 132/201/60 130/222/60 129/195/60
f 139/199/59 140/223/59 138/203/59
f 128/205/69 132/201/69 131/202/69
f 137/204/61 138/203/61 134/207/61
f 105/194/64 106/209/64 136/168/64
f 126/196/63 102/193/63 101/192/63
f 128/173/66 127/206/66 103/190/66
f 134/208/65 108/172/65 107/191/65
f 106/209/10 102/224/10 126/169/10
